ply
format ascii 1.0
comment Created by Blender 2.60 (sub 0) - www.blender.org, source file: ''
element vertex 580
property float x
property float y
property float z
element face 196
property list uchar uint vertex_indices
end_header
-57.547001 -21.836599 480.000000
-89.793297 -21.276800 459.326996
-100.191002 -45.950401 455.079010
-100.191002 -45.950401 455.079010
-89.793297 -21.276800 459.326996
-57.547001 -21.836599 480.000000
-57.547001 -21.836599 480.000000
-100.191002 -45.950401 455.079010
-66.611000 -47.212700 454.941986
-66.611000 -47.212700 454.941986
-100.191002 -45.950401 455.079010
-57.547001 -21.836599 480.000000
-57.547001 -21.836599 480.000000
-65.509804 -5.263690 467.381012
-89.793297 -21.276800 459.326996
-89.793297 -21.276800 459.326996
-65.509804 -5.263690 467.381012
-57.547001 -21.836599 480.000000
-57.547001 -21.836599 480.000000
-66.611000 -47.212700 454.941986
-33.034401 -25.189301 464.889008
-33.034401 -25.189301 464.889008
-66.611000 -47.212700 454.941986
-57.547001 -21.836599 480.000000
-65.509804 -5.263690 467.381012
-57.547001 -21.836599 480.000000
-39.691299 -3.962320 472.360992
-57.547001 -21.836599 480.000000
-65.509804 -5.263690 467.381012
-39.691299 -3.962320 472.360992
-1.002450 -1.234300 434.467010
-57.547001 -21.836599 480.000000
-33.034401 -25.189301 464.889008
-33.034401 -25.189301 464.889008
-57.547001 -21.836599 480.000000
-1.002450 -1.234300 434.467010
-39.691299 -3.962320 472.360992
-57.547001 -21.836599 480.000000
-1.002450 -1.234300 434.467010
-57.547001 -21.836599 480.000000
-39.691299 -3.962320 472.360992
-1.002450 -1.234300 434.467010
64.071602 1.248230 480.000000
94.341499 13.554600 450.628998
60.291000 16.251699 460.575012
60.291000 16.251699 460.575012
94.341499 13.554600 450.628998
64.071602 1.248230 480.000000
64.071602 1.248230 480.000000
60.291000 16.251699 460.575012
-1.361410 -0.679312 434.467010
-1.361410 -0.679312 434.467010
60.291000 16.251699 460.575012
64.071602 1.248230 480.000000
116.286003 -10.334700 455.079010
94.341499 13.554600 450.628998
64.071602 1.248230 480.000000
64.071602 1.248230 480.000000
94.341499 13.554600 450.628998
116.286003 -10.334700 455.079010
64.071602 1.248230 480.000000
-1.361410 -0.679312 434.467010
35.333698 -12.098000 471.739990
35.333698 -12.098000 471.739990
-1.361410 -0.679312 434.467010
64.071602 1.248230 480.000000
116.286003 -10.334700 455.079010
64.071602 1.248230 480.000000
91.230003 -24.646500 452.463013
91.230003 -24.646500 452.463013
64.071602 1.248230 480.000000
116.286003 -10.334700 455.079010
64.272598 -23.514601 463.003998
64.071602 1.248230 480.000000
35.333698 -12.098000 471.739990
35.333698 -12.098000 471.739990
64.071602 1.248230 480.000000
64.272598 -23.514601 463.003998
91.230003 -24.646500 452.463013
64.071602 1.248230 480.000000
64.272598 -23.514601 463.003998
64.272598 -23.514601 463.003998
64.071602 1.248230 480.000000
91.230003 -24.646500 452.463013
35.587299 116.828003 455.079010
26.426100 65.258301 480.000000
49.108700 84.232903 450.628998
49.108700 84.232903 450.628998
26.426100 65.258301 480.000000
35.587299 116.828003 455.079010
35.587299 116.828003 455.079010
10.732700 94.566498 469.868011
26.426100 65.258301 480.000000
26.426100 65.258301 480.000000
10.732700 94.566498 469.868011
35.587299 116.828003 455.079010
49.108700 84.232903 450.628998
26.426100 65.258301 480.000000
41.876099 58.029202 450.628998
41.876099 58.029202 450.628998
26.426100 65.258301 480.000000
49.108700 84.232903 450.628998
26.426100 65.258301 480.000000
10.732700 94.566498 469.868011
9.991240 57.254200 476.109009
9.991240 57.254200 476.109009
10.732700 94.566498 469.868011
26.426100 65.258301 480.000000
26.426100 65.258301 480.000000
26.546801 31.640301 469.864990
41.876099 58.029202 450.628998
41.876099 58.029202 450.628998
26.546801 31.640301 469.864990
26.426100 65.258301 480.000000
26.426100 65.258301 480.000000
9.991240 57.254200 476.109009
-0.551757 0.898544 434.467010
-0.551757 0.898544 434.467010
9.991240 57.254200 476.109009
26.426100 65.258301 480.000000
26.546801 31.640301 469.864990
26.426100 65.258301 480.000000
-0.551757 0.898544 434.467010
-0.551757 0.898544 434.467010
26.426100 65.258301 480.000000
26.546801 31.640301 469.864990
-6.451670 52.057899 451.067993
-17.650499 89.084198 465.010010
-24.546600 65.935699 466.127014
-24.546600 65.935699 466.127014
-17.650499 89.084198 465.010010
-6.451670 52.057899 451.067993
-24.546600 65.935699 466.127014
-11.623200 35.348301 467.992004
-6.451670 52.057899 451.067993
-6.451670 52.057899 451.067993
-11.623200 35.348301 467.992004
-24.546600 65.935699 466.127014
-3.815370 80.566704 450.628998
-17.650499 89.084198 465.010010
-6.451670 52.057899 451.067993
-6.451670 52.057899 451.067993
-17.650499 89.084198 465.010010
-3.815370 80.566704 450.628998
-6.451670 52.057899 451.067993
-11.623200 35.348301 467.992004
-1.192520 -0.250105 434.467010
-1.192520 -0.250105 434.467010
-11.623200 35.348301 467.992004
-6.451670 52.057899 451.067993
-3.815370 80.566704 450.628998
-6.451670 52.057899 451.067993
4.466280 57.192799 463.071991
4.466280 57.192799 463.071991
-6.451670 52.057899 451.067993
-3.815370 80.566704 450.628998
-6.451670 52.057899 451.067993
-1.192520 -0.250105 434.467010
2.651670 35.039001 464.247986
2.651670 35.039001 464.247986
-1.192520 -0.250105 434.467010
-6.451670 52.057899 451.067993
4.466280 57.192799 463.071991
-6.451670 52.057899 451.067993
2.651670 35.039001 464.247986
2.651670 35.039001 464.247986
-6.451670 52.057899 451.067993
4.466280 57.192799 463.071991
31.713699 -89.355103 458.703003
13.059400 -61.646301 480.000000
6.807430 -114.707001 455.079010
6.807430 -114.707001 455.079010
13.059400 -61.646301 480.000000
31.713699 -89.355103 458.703003
31.713699 -89.355103 458.703003
27.214899 -55.906898 467.440002
13.059400 -61.646301 480.000000
13.059400 -61.646301 480.000000
27.214899 -55.906898 467.440002
31.713699 -89.355103 458.703003
13.059400 -61.646301 480.000000
-10.078300 -88.053299 450.628998
6.807430 -114.707001 455.079010
6.807430 -114.707001 455.079010
-10.078300 -88.053299 450.628998
13.059400 -61.646301 480.000000
27.214899 -55.906898 467.440002
-1.546420 0.102257 434.467010
13.059400 -61.646301 480.000000
13.059400 -61.646301 480.000000
-1.546420 0.102257 434.467010
27.214899 -55.906898 467.440002
-6.042070 -60.861000 459.326996
-10.078300 -88.053299 450.628998
13.059400 -61.646301 480.000000
13.059400 -61.646301 480.000000
-10.078300 -88.053299 450.628998
-6.042070 -60.861000 459.326996
-1.546420 0.102257 434.467010
-2.488450 -34.675400 469.864990
13.059400 -61.646301 480.000000
13.059400 -61.646301 480.000000
-2.488450 -34.675400 469.864990
-1.546420 0.102257 434.467010
-2.488450 -34.675400 469.864990
-6.042070 -60.861000 459.326996
13.059400 -61.646301 480.000000
13.059400 -61.646301 480.000000
-6.042070 -60.861000 459.326996
-2.488450 -34.675400 469.864990
50.804901 -24.604000 417.472992
47.692600 -37.254501 433.273987
72.773102 -46.473400 406.898987
72.773102 -46.473400 406.898987
47.692600 -37.254501 433.273987
50.804901 -24.604000 417.472992
-2.912840 -0.730542 433.919006
47.692600 -37.254501 433.273987
50.804901 -24.604000 417.472992
50.804901 -24.604000 417.472992
47.692600 -37.254501 433.273987
-2.912840 -0.730542 433.919006
47.692600 -37.254501 433.273987
71.242996 -79.994797 413.427002
72.773102 -46.473400 406.898987
72.773102 -46.473400 406.898987
71.242996 -79.994797 413.427002
47.692600 -37.254501 433.273987
47.692600 -37.254501 433.273987
-2.912840 -0.730542 433.919006
18.356899 -26.805700 433.311005
18.356899 -26.805700 433.311005
-2.912840 -0.730542 433.919006
47.692600 -37.254501 433.273987
71.242996 -79.994797 413.427002
47.692600 -37.254501 433.273987
43.235100 -70.553703 421.457001
43.235100 -70.553703 421.457001
47.692600 -37.254501 433.273987
71.242996 -79.994797 413.427002
47.692600 -37.254501 433.273987
18.356899 -26.805700 433.311005
30.678499 -48.165298 427.437988
30.678499 -48.165298 427.437988
18.356899 -26.805700 433.311005
47.692600 -37.254501 433.273987
47.692600 -37.254501 433.273987
30.678499 -48.165298 427.437988
43.235100 -70.553703 421.457001
43.235100 -70.553703 421.457001
30.678499 -48.165298 427.437988
47.692600 -37.254501 433.273987
96.002296 40.337299 388.450989
70.584999 51.242500 407.308014
55.437500 25.309999 424.924011
55.437500 25.309999 424.924011
70.584999 51.242500 407.308014
96.002296 40.337299 388.450989
70.584999 51.242500 407.308014
43.273800 38.792000 423.558990
55.437500 25.309999 424.924011
55.437500 25.309999 424.924011
43.273800 38.792000 423.558990
70.584999 51.242500 407.308014
96.002296 40.337299 388.450989
55.437500 25.309999 424.924011
78.028801 19.365200 386.207001
78.028801 19.365200 386.207001
55.437500 25.309999 424.924011
96.002296 40.337299 388.450989
55.437500 25.309999 424.924011
43.273800 38.792000 423.558990
-4.138580 0.908413 432.188995
-4.138580 0.908413 432.188995
43.273800 38.792000 423.558990
55.437500 25.309999 424.924011
55.437500 25.309999 424.924011
56.666302 8.705900 398.483002
78.028801 19.365200 386.207001
78.028801 19.365200 386.207001
56.666302 8.705900 398.483002
55.437500 25.309999 424.924011
-4.138580 0.908413 432.188995
31.096001 5.419600 417.654999
55.437500 25.309999 424.924011
55.437500 25.309999 424.924011
31.096001 5.419600 417.654999
-4.138580 0.908413 432.188995
55.437500 25.309999 424.924011
31.096001 5.419600 417.654999
56.666302 8.705900 398.483002
56.666302 8.705900 398.483002
31.096001 5.419600 417.654999
55.437500 25.309999 424.924011
-52.777500 46.590500 432.123993
-58.169800 74.206299 415.381989
-92.035301 73.036598 405.385010
-92.035301 73.036598 405.385010
-58.169800 74.206299 415.381989
-52.777500 46.590500 432.123993
-52.777500 46.590500 432.123993
-92.035301 73.036598 405.385010
-79.238197 42.758400 404.153992
-79.238197 42.758400 404.153992
-92.035301 73.036598 405.385010
-52.777500 46.590500 432.123993
-37.872002 58.517899 424.302002
-58.169800 74.206299 415.381989
-52.777500 46.590500 432.123993
-52.777500 46.590500 432.123993
-58.169800 74.206299 415.381989
-37.872002 58.517899 424.302002
-52.777500 46.590500 432.123993
-79.238197 42.758400 404.153992
-47.306900 29.143200 418.644012
-47.306900 29.143200 418.644012
-79.238197 42.758400 404.153992
-52.777500 46.590500 432.123993
-19.979900 35.373901 431.782013
-37.872002 58.517899 424.302002
-52.777500 46.590500 432.123993
-52.777500 46.590500 432.123993
-37.872002 58.517899 424.302002
-19.979900 35.373901 431.782013
-52.777500 46.590500 432.123993
-47.306900 29.143200 418.644012
0.488826 0.200543 429.613007
0.488826 0.200543 429.613007
-47.306900 29.143200 418.644012
-52.777500 46.590500 432.123993
0.488826 0.200543 429.613007
-19.979900 35.373901 431.782013
-52.777500 46.590500 432.123993
-52.777500 46.590500 432.123993
-19.979900 35.373901 431.782013
0.488826 0.200543 429.613007
-60.975899 14.654800 407.007996
-93.164597 14.481100 368.954010
-71.253403 -3.348420 382.178986
-71.253403 -3.348420 382.178986
-93.164597 14.481100 368.954010
-60.975899 14.654800 407.007996
-38.640099 0.378475 408.653992
-60.975899 14.654800 407.007996
-71.253403 -3.348420 382.178986
-71.253403 -3.348420 382.178986
-60.975899 14.654800 407.007996
-38.640099 0.378475 408.653992
-76.600304 27.227301 373.519989
-93.164597 14.481100 368.954010
-60.975899 14.654800 407.007996
-60.975899 14.654800 407.007996
-93.164597 14.481100 368.954010
-76.600304 27.227301 373.519989
3.735350 -1.859760 431.316986
-60.975899 14.654800 407.007996
-38.640099 0.378475 408.653992
-38.640099 0.378475 408.653992
-60.975899 14.654800 407.007996
3.735350 -1.859760 431.316986
-60.975899 14.654800 407.007996
-52.285801 28.159000 393.513000
-76.600304 27.227301 373.519989
-76.600304 27.227301 373.519989
-52.285801 28.159000 393.513000
-60.975899 14.654800 407.007996
3.735350 -1.859760 431.316986
-32.922100 17.422501 411.024994
-60.975899 14.654800 407.007996
-60.975899 14.654800 407.007996
-32.922100 17.422501 411.024994
3.735350 -1.859760 431.316986
-32.922100 17.422501 411.024994
-52.285801 28.159000 393.513000
-60.975899 14.654800 407.007996
-60.975899 14.654800 407.007996
-52.285801 28.159000 393.513000
-32.922100 17.422501 411.024994
-44.222599 -50.208302 420.093994
-62.271400 -65.292198 386.701996
-62.301201 -94.182602 391.807007
-62.301201 -94.182602 391.807007
-62.271400 -65.292198 386.701996
-44.222599 -50.208302 420.093994
-33.195499 -78.376701 409.858002
-44.222599 -50.208302 420.093994
-62.301201 -94.182602 391.807007
-62.301201 -94.182602 391.807007
-44.222599 -50.208302 420.093994
-33.195499 -78.376701 409.858002
-50.547401 -37.900002 398.039001
-62.271400 -65.292198 386.701996
-44.222599 -50.208302 420.093994
-44.222599 -50.208302 420.093994
-62.271400 -65.292198 386.701996
-50.547401 -37.900002 398.039001
-16.933901 -40.613800 425.570007
-44.222599 -50.208302 420.093994
-33.195499 -78.376701 409.858002
-33.195499 -78.376701 409.858002
-44.222599 -50.208302 420.093994
-16.933901 -40.613800 425.570007
-31.260900 -23.741699 414.798004
-50.547401 -37.900002 398.039001
-44.222599 -50.208302 420.093994
-44.222599 -50.208302 420.093994
-50.547401 -37.900002 398.039001
-31.260900 -23.741699 414.798004
2.024080 -1.434460 431.697998
-44.222599 -50.208302 420.093994
-16.933901 -40.613800 425.570007
-16.933901 -40.613800 425.570007
-44.222599 -50.208302 420.093994
2.024080 -1.434460 431.697998
2.024080 -1.434460 431.697998
-31.260900 -23.741699 414.798004
-44.222599 -50.208302 420.093994
-44.222599 -50.208302 420.093994
-31.260900 -23.741699 414.798004
2.024080 -1.434460 431.697998
-0.604020 12.473600 0.000009
-0.603926 -14.371400 0.000009
-14.026500 -0.948923 0.000009
12.818600 -0.948914 0.000009
12.818600 -0.948914 0.000009
-0.604020 12.473600 0.000009
-0.603926 -14.371400 0.000009
-14.026500 -0.948923 0.000009
5.597560 -0.949169 96.530899
-0.603926 -14.371400 0.000009
12.818600 -0.948914 0.000009
-0.603926 -14.371400 0.000009
5.597560 -0.949169 96.530899
-0.604001 -7.150580 96.530899
-0.604001 -7.150580 96.530899
5.597560 -0.949169 96.530899
-0.603926 -14.371400 0.000009
12.818600 -0.948914 0.000009
-0.603926 -14.371400 0.000009
5.597560 -0.949169 96.530899
-0.604001 -7.150580 96.530899
-14.026500 -0.948923 0.000009
-0.603926 -14.371400 0.000009
-14.026500 -0.948923 0.000009
-0.604001 -7.150580 96.530899
-6.805530 -0.949051 96.530899
-6.805530 -0.949051 96.530899
-0.604001 -7.150580 96.530899
-14.026500 -0.948923 0.000009
-0.603926 -14.371400 0.000009
-14.026500 -0.948923 0.000009
-0.604001 -7.150580 96.530899
-6.805530 -0.949051 96.530899
-0.604020 12.473600 0.000009
-14.026500 -0.948923 0.000009
-0.604020 12.473600 0.000009
-6.805530 -0.949051 96.530899
-0.604000 5.252470 96.530899
-0.604000 5.252470 96.530899
-6.805530 -0.949051 96.530899
-0.604020 12.473600 0.000009
-14.026500 -0.948923 0.000009
-0.604020 12.473600 0.000009
-6.805530 -0.949051 96.530899
12.818600 -0.948914 0.000009
-0.604000 5.252470 96.530899
5.597560 -0.949169 96.530899
-0.604000 5.252470 96.530899
12.818600 -0.948914 0.000009
-0.604020 12.473600 0.000009
-0.604020 12.473600 0.000009
12.818600 -0.948914 0.000009
-0.604000 5.252470 96.530899
5.597560 -0.949169 96.530899
-0.604000 5.252470 96.530899
12.818600 -0.948914 0.000009
5.597560 -0.949169 96.530899
-0.603948 -5.641550 248.391998
-0.604001 -7.150580 96.530899
-0.603948 -5.641550 248.391998
5.597560 -0.949169 96.530899
4.088620 -0.948968 248.391998
4.088620 -0.948968 248.391998
5.597560 -0.949169 96.530899
-0.603948 -5.641550 248.391998
-0.604001 -7.150580 96.530899
-0.603948 -5.641550 248.391998
5.597560 -0.949169 96.530899
-0.603948 -5.641550 248.391998
-6.805530 -0.949051 96.530899
-0.604001 -7.150580 96.530899
-6.805530 -0.949051 96.530899
-0.603948 -5.641550 248.391998
-5.296530 -0.948986 248.391998
-5.296530 -0.948986 248.391998
-0.603948 -5.641550 248.391998
-6.805530 -0.949051 96.530899
-0.604001 -7.150580 96.530899
-6.805530 -0.949051 96.530899
-0.603948 -5.641550 248.391998
-5.296530 -0.948986 248.391998
-0.604000 5.252470 96.530899
-6.805530 -0.949051 96.530899
-0.604000 5.252470 96.530899
-5.296530 -0.948986 248.391998
-0.603966 3.743600 248.391998
-0.603966 3.743600 248.391998
-5.296530 -0.948986 248.391998
-0.604000 5.252470 96.530899
-6.805530 -0.949051 96.530899
-0.604000 5.252470 96.530899
-5.296530 -0.948986 248.391998
-0.603966 3.743600 248.391998
5.597560 -0.949169 96.530899
-0.604000 5.252470 96.530899
5.597560 -0.949169 96.530899
-0.603966 3.743600 248.391998
4.088620 -0.948968 248.391998
4.088620 -0.948968 248.391998
-0.603966 3.743600 248.391998
5.597560 -0.949169 96.530899
-0.604000 5.252470 96.530899
5.597560 -0.949169 96.530899
-0.603966 3.743600 248.391998
4.088620 -0.948968 248.391998
3.339860 -1.149760 449.046997
-0.603948 -5.641550 248.391998
-0.603948 -5.641550 248.391998
3.339860 -1.149760 449.046997
4.088620 -0.948968 248.391998
-0.603930 -4.691690 449.046997
-5.296530 -0.948986 248.391998
-0.603948 -5.641550 248.391998
-5.296530 -0.948986 248.391998
-0.603930 -4.691690 449.046997
-4.346700 -0.948888 449.046997
-4.346700 -0.948888 449.046997
-0.603930 -4.691690 449.046997
-5.296530 -0.948986 248.391998
-0.603948 -5.641550 248.391998
-5.296530 -0.948986 248.391998
-0.603930 -4.691690 449.046997
-4.346700 -0.948888 449.046997
-0.603966 3.743600 248.391998
-5.296530 -0.948986 248.391998
-0.603966 3.743600 248.391998
-4.346700 -0.948888 449.046997
-0.603931 2.794000 449.046997
-0.603931 2.794000 449.046997
-4.346700 -0.948888 449.046997
-0.603966 3.743600 248.391998
-5.296530 -0.948986 248.391998
-0.603966 3.743600 248.391998
-4.346700 -0.948888 449.046997
-0.603931 2.794000 449.046997
4.088620 -0.948968 248.391998
-0.603966 3.743600 248.391998
4.088620 -0.948968 248.391998
-0.603931 2.794000 449.046997
3.339860 -1.149760 449.046997
3.339860 -1.149760 449.046997
-0.603931 2.794000 449.046997
4.088620 -0.948968 248.391998
-0.603966 3.743600 248.391998
4.088620 -0.948968 248.391998
-0.603931 2.794000 449.046997
-0.603930 -4.691690 449.046997
-0.603948 -5.641550 248.391998
3.339860 -1.149760 449.046997
3.339860 -1.149760 449.046997
-0.603948 -5.641550 248.391998
-0.603930 -4.691690 449.046997
-0.603930 -4.691690 449.046997
-0.603931 2.794000 449.046997
-4.346700 -0.948888 449.046997
3.339860 -1.149760 449.046997
3.339860 -1.149760 449.046997
-0.603930 -4.691690 449.046997
-0.603931 2.794000 449.046997
-4.346700 -0.948888 449.046997
3 0 1 2
3 3 4 5
3 6 7 8
3 9 10 11
3 12 13 14
3 15 16 17
3 18 19 20
3 21 22 23
3 24 25 26
3 27 28 29
3 30 31 32
3 33 34 35
3 36 37 38
3 39 40 41
3 42 43 44
3 45 46 47
3 48 49 50
3 51 52 53
3 54 55 56
3 57 58 59
3 60 61 62
3 63 64 65
3 66 67 68
3 69 70 71
3 72 73 74
3 75 76 77
3 78 79 80
3 81 82 83
3 84 85 86
3 87 88 89
3 90 91 92
3 93 94 95
3 96 97 98
3 99 100 101
3 102 103 104
3 105 106 107
3 108 109 110
3 111 112 113
3 114 115 116
3 117 118 119
3 120 121 122
3 123 124 125
3 126 127 128
3 129 130 131
3 132 133 134
3 135 136 137
3 138 139 140
3 141 142 143
3 144 145 146
3 147 148 149
3 150 151 152
3 153 154 155
3 156 157 158
3 159 160 161
3 162 163 164
3 165 166 167
3 168 169 170
3 171 172 173
3 174 175 176
3 177 178 179
3 180 181 182
3 183 184 185
3 186 187 188
3 189 190 191
3 192 193 194
3 195 196 197
3 198 199 200
3 201 202 203
3 204 205 206
3 207 208 209
3 210 211 212
3 213 214 215
3 216 217 218
3 219 220 221
3 222 223 224
3 225 226 227
3 228 229 230
3 231 232 233
3 234 235 236
3 237 238 239
3 240 241 242
3 243 244 245
3 246 247 248
3 249 250 251
3 252 253 254
3 255 256 257
3 258 259 260
3 261 262 263
3 264 265 266
3 267 268 269
3 270 271 272
3 273 274 275
3 276 277 278
3 279 280 281
3 282 283 284
3 285 286 287
3 288 289 290
3 291 292 293
3 294 295 296
3 297 298 299
3 300 301 302
3 303 304 305
3 306 307 308
3 309 310 311
3 312 313 314
3 315 316 317
3 318 319 320
3 321 322 323
3 324 325 326
3 327 328 329
3 330 331 332
3 333 334 335
3 336 337 338
3 339 340 341
3 342 343 344
3 345 346 347
3 348 349 350
3 351 352 353
3 354 355 356
3 357 358 359
3 360 361 362
3 363 364 365
3 366 367 368
3 369 370 371
3 372 373 374
3 375 376 377
3 378 379 380
3 381 382 383
3 384 385 386
3 387 388 389
3 390 391 392
3 393 394 395
3 396 397 398
3 399 400 401
3 402 403 404
3 405 406 407
3 408 409 410
3 411 412 413
3 414 415 416
3 417 418 419
3 420 421 422
3 421 420 423
3 424 425 426
3 427 426 425
3 428 429 430
3 431 432 433
3 434 435 436
3 437 438 439
3 440 441 442
3 443 444 445
3 446 447 448
3 449 450 451
3 452 453 454
3 455 456 457
3 458 459 460
3 461 462 463
3 464 465 466
3 467 468 469
3 470 471 472
3 473 474 475
3 476 477 478
3 479 480 481
3 482 483 484
3 485 486 487
3 488 489 490
3 491 492 493
3 494 495 496
3 497 498 499
3 500 501 502
3 503 504 505
3 506 507 508
3 509 510 511
3 512 513 514
3 515 516 517
3 518 519 520
3 521 522 523
3 524 525 526
3 527 528 529
3 530 531 532
3 533 534 535
3 536 537 538
3 539 540 541
3 542 543 544
3 545 546 547
3 548 549 550
3 551 552 553
3 554 555 556
3 557 558 559
3 560 561 562
3 563 564 565
3 566 567 568
3 569 570 571
3 572 573 574
3 573 572 575
3 576 577 578
3 579 578 577
