ply
format ascii 1.0
comment Created by Blender 2.60 (sub 0) - www.blender.org, source file: ''
element vertex 826
property float x
property float y
property float z
property float s
property float t
element face 456
property list uchar uint vertex_indices
end_header
-1.826746 -2.200956 0.018623 0.285839 0.880240
-1.826746 -1.614601 0.018623 0.367141 0.880240
-0.913373 -1.614601 0.018623 0.367141 0.939250
-0.913373 -2.200956 0.018623 0.285839 0.939250
-0.913373 -2.271352 1.169558 0.492391 0.479848
-0.913373 -1.614601 0.643064 0.436845 0.479848
0.000000 -1.614601 0.643064 0.436845 0.325581
0.000000 -2.271352 1.169558 0.492391 0.325581
0.913373 -1.614601 0.643064 0.436845 0.171315
0.913373 -1.614601 0.643064 0.436845 0.171315
0.913373 -2.271352 1.169558 0.492391 0.171315
0.000000 -2.271352 1.169558 0.492391 0.325581
0.913373 -2.200956 0.018623 0.287131 0.941148
0.913373 -1.614601 0.018623 0.367233 0.941148
1.826747 -1.614601 0.018623 0.367233 1.000158
1.826747 -2.200956 0.018623 0.287131 1.000158
-1.826746 -0.539367 0.018623 0.459936 0.880240
-0.913373 -0.539367 0.018623 0.459936 0.939250
-0.913373 -1.614601 0.643064 0.436845 0.479848
-0.913373 -0.539367 0.643064 0.345903 0.479848
0.000000 -0.539367 0.643064 0.345903 0.325581
0.000000 -1.614601 0.643064 0.436845 0.325581
0.913373 -0.539367 0.643064 0.345903 0.171315
0.913373 -1.614601 0.643064 0.436845 0.171315
0.913373 -0.539367 0.018623 0.461215 0.941148
1.826747 -0.539367 0.018623 0.461215 1.000158
-1.826746 0.535867 0.018623 0.560114 0.880240
-0.913373 0.535867 0.018623 0.560114 0.939250
-0.913373 0.535867 0.643064 0.254963 0.479848
0.000000 0.535867 0.643064 0.254963 0.325581
0.913373 0.535867 0.643064 0.254963 0.171315
0.913373 0.535867 0.018623 0.560734 0.941148
1.826747 0.535867 0.018623 0.560734 1.000158
-1.826746 1.611101 0.018623 0.645527 0.880240
-0.913373 1.611101 0.018623 0.645527 0.939250
-0.913373 1.611101 0.643064 0.164022 0.479848
0.000000 1.611101 0.643064 0.164022 0.325581
0.913373 1.611101 0.643064 0.164022 0.171315
0.913373 1.611101 0.018623 0.645487 0.941148
1.826747 1.611101 0.018623 0.645488 1.000158
-1.826746 2.286504 0.018623 0.734478 0.880240
-0.913373 2.286504 0.018623 0.734478 0.939250
-0.913373 1.611101 0.643064 0.164022 0.479848
-0.913373 2.350868 1.070674 0.101454 0.479848
0.000000 2.350868 1.070674 0.101454 0.325581
0.000000 1.611101 0.643064 0.164022 0.325581
0.913373 2.350868 1.070674 0.101454 0.171315
0.913373 1.611101 0.643064 0.164022 0.171315
0.913373 2.286504 0.018623 0.733339 0.941148
1.826747 2.286504 0.018623 0.733339 1.000158
-1.826746 -2.719550 2.074158 0.530299 0.634115
-0.913373 -2.719550 2.074158 0.530299 0.479848
-0.913373 -1.620812 2.238059 0.437370 0.479848
-1.826746 -1.620812 2.238059 0.437370 0.634115
-0.913373 -2.719550 2.074158 0.530299 0.479848
0.000000 -2.719397 2.074212 0.530286 0.325581
0.000000 -1.620812 2.238059 0.437370 0.325581
0.000000 -1.620812 2.238059 0.437370 0.325581
0.000000 -2.719397 2.074212 0.530286 0.325581
0.913373 -2.719550 2.074158 0.530299 0.171315
0.913373 -1.620812 2.238059 0.437370 0.171315
0.913373 -1.620812 2.238059 0.437370 0.171315
0.000000 -1.620812 2.238059 0.437370 0.325581
0.000000 -2.719397 2.074212 0.530286 0.325581
0.913373 -2.719550 2.074158 0.530299 0.171315
1.826747 -2.719550 2.074158 0.530299 0.017048
1.826747 -1.620811 2.238059 0.437370 0.017048
0.913373 -1.620812 2.238059 0.437370 0.171315
-1.826746 -1.620812 2.238059 0.437370 0.634115
-0.913373 -1.620812 2.238059 0.437370 0.479848
-0.913373 -0.539203 2.234223 0.345890 0.479848
-1.826746 -0.539203 2.234223 0.345890 0.634115
0.000000 -1.620812 2.238059 0.437370 0.325581
0.000000 -0.539203 2.234223 0.345890 0.325581
0.913373 -1.620812 2.238059 0.437370 0.171315
0.913373 -0.539203 2.234223 0.345890 0.171315
1.826747 -1.620811 2.238059 0.437370 0.017048
1.826747 -0.539203 2.234223 0.345890 0.017048
-1.826746 -0.539203 2.234223 0.345890 0.634115
-0.913373 -0.539203 2.234223 0.345890 0.479848
-0.913373 0.535867 2.234223 0.254963 0.479848
-1.826746 0.535867 2.234223 0.254963 0.634115
0.000000 -0.539203 2.234223 0.345890 0.325581
0.000000 0.535867 2.234223 0.254963 0.325581
0.913373 -0.539203 2.234223 0.345890 0.171315
0.913373 0.535867 2.234223 0.254963 0.171315
1.826747 -0.539203 2.234223 0.345890 0.017048
1.826747 0.535867 2.234223 0.254963 0.017048
-1.826746 0.535867 2.234223 0.254963 0.634115
-0.913373 0.535867 2.234223 0.254963 0.479848
-0.913373 1.615960 2.234087 0.163611 0.479848
-1.826746 1.615960 2.234087 0.163611 0.634115
0.000000 0.535867 2.234223 0.254963 0.325581
0.000000 1.615960 2.234087 0.163611 0.325581
0.913373 0.535867 2.234223 0.254963 0.171315
0.913373 1.615960 2.234087 0.163611 0.171315
1.826747 0.535867 2.234223 0.254963 0.017048
1.826747 1.615960 2.234087 0.163611 0.017048
-1.826746 1.615960 2.234087 0.163611 0.634115
-0.913373 1.615960 2.234087 0.163611 0.479848
-0.913373 2.720695 2.106329 0.070174 0.479848
-1.826746 2.720695 2.106329 0.070174 0.634115
0.000000 1.615960 2.234087 0.163611 0.325581
0.000000 2.720696 2.106329 0.070174 0.325581
0.913373 1.615960 2.234087 0.163611 0.171315
0.913373 2.720695 2.106329 0.070174 0.171315
1.826747 1.615960 2.234087 0.163611 0.017048
1.826747 2.720695 2.106329 0.070174 0.017048
-1.826746 -3.255864 0.643064 0.100078 0.880240
-0.913373 -3.255865 0.643064 0.100078 0.939250
-0.913373 -3.370797 1.015669 0.007383 0.939250
-0.913373 -3.370797 1.015669 0.007383 0.939250
-1.826746 -3.370797 1.015669 0.007383 0.880240
-1.826746 -3.255864 0.643064 0.100078 0.880240
-0.913373 -2.271352 1.169558 0.492391 0.479848
0.000000 -2.271352 1.169558 0.492391 0.325581
0.000000 -2.689835 1.437953 0.527786 0.325581
-0.913373 -2.689835 1.437953 0.527786 0.479848
0.000000 -2.271352 1.169558 0.492391 0.325581
0.913373 -2.271352 1.169558 0.492391 0.171315
0.913373 -2.689834 1.437953 0.527786 0.171315
0.913373 -2.689834 1.437953 0.527786 0.171315
0.913373 -3.255865 0.643064 0.100205 0.941148
1.826747 -3.255865 0.643064 0.100205 1.000158
1.826747 -3.370797 1.015669 0.005537 1.000158
0.913373 -3.370797 1.015669 0.005537 0.941148
-1.826746 -3.482989 1.042346 0.594869 0.634115
-0.913373 -3.482989 1.042346 0.594869 0.479848
-0.913373 -3.428229 1.422768 0.590237 0.479848
-1.826746 -3.428229 1.422768 0.590237 0.634115
-0.913373 -2.689835 1.437953 0.527786 0.479848
0.000000 -2.689835 1.437953 0.527786 0.325581
0.000000 -3.167182 1.654351 0.568159 0.325581
0.000000 -3.167182 1.654351 0.568159 0.325581
-0.913373 -3.178856 1.645490 0.569146 0.479848
-0.913373 -2.689835 1.437953 0.527786 0.479848
0.000000 -2.689835 1.437953 0.527786 0.325581
0.913373 -2.689834 1.437953 0.527786 0.171315
0.913373 -3.178856 1.645490 0.569146 0.171315
0.913373 -3.178856 1.645490 0.569146 0.171315
0.000000 -3.167182 1.654351 0.568159 0.325581
0.000000 -2.689835 1.437953 0.527786 0.325581
0.913373 -3.482988 1.042346 0.594869 0.171315
1.826747 -3.482989 1.042346 0.594869 0.017048
1.826747 -3.428229 1.422768 0.590237 0.017048
1.826747 -3.428229 1.422768 0.590237 0.017048
0.913373 -3.428229 1.422768 0.590237 0.171315
0.913373 -3.482988 1.042346 0.594869 0.171315
-1.826746 -3.251908 1.760651 0.575325 0.634115
-0.913435 -3.243279 1.769246 0.574595 0.479859
-0.913373 -2.719550 2.074158 0.530299 0.479848
-0.913373 -2.719550 2.074158 0.530299 0.479848
-1.826746 -2.719550 2.074158 0.530299 0.634115
-1.826746 -3.251908 1.760651 0.575325 0.634115
-0.913435 -3.243279 1.769246 0.574595 0.479859
0.000000 -3.212910 1.791757 0.572026 0.325581
0.000000 -2.719397 2.074212 0.530286 0.325581
0.000000 -2.719397 2.074212 0.530286 0.325581
-0.913373 -2.719550 2.074158 0.530299 0.479848
-0.913435 -3.243279 1.769246 0.574595 0.479859
0.000000 -3.212910 1.791757 0.572026 0.325581
0.913435 -3.243279 1.769246 0.574595 0.171304
0.913373 -2.719550 2.074158 0.530299 0.171315
0.913373 -2.719550 2.074158 0.530299 0.171315
0.000000 -2.719397 2.074212 0.530286 0.325581
0.000000 -3.212910 1.791757 0.572026 0.325581
0.913435 -3.243279 1.769246 0.574595 0.171304
1.826747 -3.251908 1.760651 0.575325 0.017048
1.826747 -2.719550 2.074158 0.530299 0.017048
1.826747 -2.719550 2.074158 0.530299 0.017048
0.913373 -2.719550 2.074158 0.530299 0.171315
0.913435 -3.243279 1.769246 0.574595 0.171304
1.826747 -2.689834 0.643064 0.112454 0.769291
1.826747 -1.614601 0.643064 0.269618 0.769291
1.826747 -1.614601 1.437953 0.269618 0.650473
1.826747 -2.689834 1.437953 0.112454 0.650473
1.826747 -0.539367 0.643064 0.426782 0.769291
1.826747 -0.539367 1.437953 0.426782 0.650473
1.826747 0.535867 0.643064 0.583946 0.769291
1.826747 0.535867 1.437953 0.583946 0.650473
1.826747 1.611101 0.643064 0.741110 0.769291
1.826747 1.611101 1.437953 0.741110 0.650473
1.826747 2.686335 0.643064 0.898274 0.769291
1.826747 2.686335 1.437953 0.898274 0.650473
1.902753 -2.689834 1.437953 0.114728 0.527326
1.902753 -1.614601 1.437953 0.270257 0.527326
1.902753 -1.614601 1.668841 0.270257 0.493928
1.902753 -3.178856 1.645490 0.043992 0.497306
1.902753 -0.539367 1.437953 0.425787 0.527326
1.902753 -0.539367 1.684353 0.425787 0.491684
1.902753 0.535867 1.437953 0.581317 0.527326
1.902753 0.535867 1.684353 0.581317 0.491684
1.902753 1.611101 1.437953 0.736847 0.527326
1.902753 1.611101 1.684353 0.736847 0.491684
1.902753 2.686335 1.437953 0.892377 0.527326
1.902753 3.113533 1.636226 0.954170 0.498646
1.902753 -2.689835 1.929343 0.114728 0.456247
1.902753 -1.614601 2.088282 0.270257 0.433257
1.902753 -0.539367 2.084223 0.425787 0.433844
1.902753 0.535867 2.084223 0.581317 0.433844
1.902753 1.611101 2.084223 0.736847 0.433844
1.902753 2.686335 1.963304 0.892377 0.451335
1.826747 3.238099 0.643064 0.914079 1.000158
0.913373 3.238099 0.643064 0.914079 0.941148
0.913373 3.319154 1.083919 1.003692 0.941148
1.826747 3.319154 1.083919 1.003692 1.000158
0.913373 2.350868 1.070674 0.101454 0.171315
0.000000 2.350868 1.070674 0.101454 0.325581
0.000000 2.686335 1.437953 0.073080 0.325581
0.913373 2.686335 1.437953 0.073080 0.171315
-0.913373 2.350868 1.070674 0.101454 0.479848
-0.913373 2.686335 1.437953 0.073080 0.479848
-0.913373 3.238099 0.643064 0.916014 0.939250
-1.826746 3.238099 0.643064 0.916014 0.880240
-1.826746 3.319154 1.083919 0.998154 0.880240
-0.913373 3.319154 1.083919 0.998154 0.939250
1.826747 3.430373 1.116897 0.010151 0.017048
0.913373 3.430373 1.116897 0.010151 0.171315
0.913373 3.359187 1.507592 0.016172 0.171315
1.826747 3.359187 1.507592 0.016172 0.017048
0.913373 2.686335 1.437953 0.073080 0.171315
0.000000 2.686335 1.437953 0.073080 0.325581
0.000000 3.113533 1.636226 0.036949 0.325581
0.913373 3.113533 1.636226 0.036949 0.171315
-0.913373 2.686335 1.437953 0.073080 0.479848
-0.913373 3.113533 1.636226 0.036949 0.479848
-0.913373 3.430374 1.116897 0.010151 0.479848
-1.826746 3.430374 1.116897 0.010151 0.634115
-1.826746 3.359187 1.507592 0.016172 0.634115
-0.913373 3.359187 1.507592 0.016172 0.479848
1.826747 3.184075 1.754065 0.030983 0.017048
0.913373 3.179791 1.758294 0.031345 0.171315
0.913373 2.720695 2.106329 0.070174 0.171315
0.913373 2.720695 2.106329 0.070174 0.171315
1.826747 2.720695 2.106329 0.070174 0.017048
1.826747 3.184075 1.754065 0.030983 0.017048
0.913373 3.179791 1.758294 0.031345 0.171315
0.000000 3.170876 1.765872 0.032099 0.325581
0.000000 2.720696 2.106329 0.070174 0.325581
0.000000 2.720696 2.106329 0.070174 0.325581
0.913373 2.720695 2.106329 0.070174 0.171315
0.913373 3.179791 1.758294 0.031345 0.171315
0.000000 3.170876 1.765872 0.032099 0.325581
-0.913373 3.179791 1.758294 0.031345 0.479848
-0.913373 2.720695 2.106329 0.070174 0.479848
-0.913373 2.720695 2.106329 0.070174 0.479848
0.000000 2.720696 2.106329 0.070174 0.325581
0.000000 3.170876 1.765872 0.032099 0.325581
-0.913373 3.179791 1.758294 0.031345 0.479848
-1.826746 3.184075 1.754065 0.030983 0.634115
-1.826746 2.720695 2.106329 0.070174 0.634115
-1.826746 2.720695 2.106329 0.070174 0.634115
-0.913373 2.720695 2.106329 0.070174 0.479848
-0.913373 3.179791 1.758294 0.031345 0.479848
-1.826746 2.686335 0.643064 0.894757 0.771137
-1.826746 1.611101 0.643064 0.737890 0.771137
-1.826746 1.611101 1.437953 0.737890 0.652319
-1.826746 2.686335 1.437953 0.894757 0.652319
-1.826746 0.535867 0.643064 0.581023 0.771137
-1.826746 0.535867 1.437953 0.581023 0.652319
-1.826746 -0.539367 0.643064 0.424155 0.771137
-1.826746 -0.539367 1.437953 0.424155 0.652319
-1.826746 -1.614601 0.643064 0.267288 0.771137
-1.826746 -1.614601 1.437953 0.267288 0.652319
-1.826746 -2.689834 0.643064 0.110421 0.771137
-1.826746 -2.689835 1.437953 0.110421 0.652319
-1.902752 2.686335 1.437953 0.892377 0.527326
-1.902752 1.611101 1.437953 0.736847 0.527326
-1.902752 1.611101 1.684353 0.736847 0.491684
-1.902752 3.113533 1.636226 0.954170 0.498646
-1.902752 0.535867 1.437953 0.581317 0.527326
-1.902752 0.535867 1.684353 0.581317 0.491684
-1.902752 -0.539367 1.437953 0.425787 0.527326
-1.902752 -0.539367 1.684353 0.425787 0.491684
-1.902752 -1.614601 1.437953 0.270257 0.527326
-1.902752 -1.614601 1.668841 0.270257 0.493928
-1.902752 -2.689834 1.437953 0.114728 0.527326
-1.902752 -3.178856 1.645490 0.043992 0.497306
-1.902752 1.611101 2.084223 0.736847 0.433844
-1.902752 2.686335 1.963304 0.892377 0.451335
-1.902752 0.535867 2.084223 0.581317 0.433844
-1.902752 -0.539367 2.084223 0.425787 0.433844
-1.902752 -1.614601 2.088282 0.270257 0.433257
-1.902752 -2.689835 1.929343 0.114728 0.456247
-1.826746 -1.614601 0.018623 0.267288 0.868169
-1.826746 -1.614601 0.018623 0.267288 0.868169
-1.826746 -2.200956 0.018623 0.178053 0.860786
-1.826746 -0.539367 0.018623 0.424155 0.868169
-1.826746 -0.539367 0.018623 0.424155 0.868169
-1.826746 -1.614601 0.018623 0.267288 0.868169
-1.826746 0.535867 0.018623 0.581023 0.868169
-1.826746 0.535867 0.018623 0.581023 0.868169
-1.826746 -0.539367 0.018623 0.424155 0.868169
-1.826746 1.611101 0.018623 0.737890 0.868169
-1.826746 1.611101 0.018623 0.737890 0.868169
-1.826746 0.535867 0.018623 0.581023 0.868169
-1.826746 2.286504 0.018623 0.836425 0.868169
-1.826746 2.286504 0.018623 0.836425 0.868169
-1.826746 1.611101 0.018623 0.737890 0.868169
-1.826746 3.238099 0.643064 0.916014 0.880240
-0.913373 3.238099 0.643064 0.916014 0.939250
-0.913373 2.981337 0.271672 0.824462 0.939250
-1.826746 2.981337 0.271672 0.824462 0.880240
-0.913373 2.350868 1.070674 0.842391 0.709065
-0.913373 1.611101 0.643064 0.734670 0.772983
-0.913373 1.611101 0.018623 0.734670 0.866323
-0.913373 1.611101 0.018623 0.734670 0.866323
-0.913373 2.286504 0.018623 0.833019 0.866323
-0.913373 2.350868 1.070674 0.842391 0.709065
-0.913373 1.611101 0.643064 0.734670 0.772983
-0.913373 0.535867 0.643064 0.578099 0.772983
-0.913373 0.535867 0.018623 0.578099 0.866323
-0.913373 0.535867 0.018623 0.578099 0.866323
-0.913373 1.611101 0.018623 0.734670 0.866323
-0.913373 1.611101 0.643064 0.734670 0.772983
-0.913373 0.535867 0.643064 0.578099 0.772983
-0.913373 -0.539367 0.643064 0.421528 0.772983
-0.913373 -0.539367 0.018623 0.421528 0.866323
-0.913373 -0.539367 0.018623 0.421528 0.866323
-0.913373 0.535867 0.018623 0.578099 0.866323
-0.913373 0.535867 0.643064 0.578099 0.772983
-0.913373 -0.539367 0.643064 0.421528 0.772983
-0.913373 -1.614601 0.643064 0.264958 0.772983
-0.913373 -1.614601 0.018623 0.264958 0.866323
-0.913373 -1.614601 0.018623 0.264958 0.866323
-0.913373 -0.539367 0.018623 0.421528 0.866323
-0.913373 -0.539367 0.643064 0.421528 0.772983
-0.913373 -1.614601 0.643064 0.264958 0.772983
-0.913373 -2.271352 1.169558 0.169325 0.694284
-0.913373 -2.200956 0.018623 0.179575 0.866323
-0.913373 -2.200956 0.018623 0.179575 0.866323
-0.913373 -1.614601 0.018623 0.264958 0.866323
-0.913373 -1.614601 0.643064 0.264958 0.772983
-0.913373 -3.255865 0.643064 0.100078 0.939250
-1.826746 -3.255864 0.643064 0.100078 0.880240
-1.826746 -2.966969 0.269246 0.192697 0.880240
-0.913373 -2.966969 0.269246 0.192697 0.939250
0.913373 -2.271352 1.169558 0.169931 0.692438
0.913373 -1.614601 0.643064 0.265927 0.771137
0.913373 -1.614601 0.018623 0.265927 0.866323
0.913373 -1.614601 0.018623 0.265927 0.866323
0.913373 -2.200956 0.018623 0.180221 0.866323
0.913373 -2.271352 1.169558 0.169931 0.692438
0.913373 -1.614601 0.643064 0.265927 0.771137
0.913373 -0.539367 0.643064 0.423091 0.771137
0.913373 -0.539367 0.018623 0.423091 0.866323
0.913373 -0.539367 0.018623 0.423091 0.866323
0.913373 -1.614601 0.018623 0.265927 0.866323
0.913373 -1.614601 0.643064 0.265927 0.771137
0.913373 -0.539367 0.643064 0.423091 0.771137
0.913373 0.535867 0.643064 0.580255 0.771137
0.913373 0.535867 0.018623 0.580255 0.866323
0.913373 0.535867 0.018623 0.580255 0.866323
0.913373 -0.539367 0.018623 0.423091 0.866323
0.913373 -0.539367 0.643064 0.423091 0.771137
0.913373 0.535867 0.643064 0.580255 0.771137
0.913373 1.611101 0.643064 0.737419 0.771137
0.913373 1.611101 0.018623 0.737419 0.866323
0.913373 1.611101 0.018623 0.737419 0.866323
0.913373 0.535867 0.018623 0.580255 0.866323
0.913373 0.535867 0.643064 0.580255 0.771137
0.913373 1.611101 0.643064 0.737419 0.771137
0.913373 2.350868 1.070674 0.845548 0.707219
0.913373 2.286504 0.018623 0.836141 0.866323
0.913373 2.286504 0.018623 0.836141 0.866323
0.913373 1.611101 0.018623 0.737419 0.866323
0.913373 1.611101 0.643064 0.737419 0.771137
0.913373 3.238099 0.643064 0.914079 0.941148
1.826747 3.238099 0.643064 0.914079 1.000158
1.826747 2.981337 0.271672 0.824090 1.000158
0.913373 2.981337 0.271672 0.824090 0.941148
1.826747 1.611101 0.018623 0.741110 0.866323
1.826747 1.611101 0.018623 0.741110 0.866323
1.826747 2.286504 0.018623 0.839832 0.866323
1.826747 0.535867 0.018623 0.583946 0.866323
1.826747 0.535867 0.018623 0.583946 0.866323
1.826747 1.611101 0.018623 0.741110 0.866323
1.826747 -0.539367 0.018623 0.426782 0.866323
1.826747 -0.539367 0.018623 0.426782 0.866323
1.826747 0.535867 0.018623 0.583946 0.866323
1.826747 -1.614601 0.018623 0.269618 0.866323
1.826747 -1.614601 0.018623 0.269618 0.866323
1.826747 -0.539367 0.018623 0.426782 0.866323
1.826747 -2.200956 0.018623 0.183912 0.866323
1.826747 -2.200956 0.018623 0.183912 0.866323
1.826747 -1.614601 0.018623 0.269618 0.866323
1.826747 -3.255865 0.643064 0.100205 1.000158
0.913373 -3.255865 0.643064 0.100205 0.941148
0.913373 -2.966969 0.269246 0.193142 0.941148
1.826747 -2.966969 0.269246 0.193142 1.000158
1.826747 3.238099 0.643064 0.978924 0.769291
1.826747 3.238099 0.643064 0.978924 0.769291
1.826747 3.319154 1.083919 0.987080 0.707085
1.826747 2.286504 0.018623 0.839832 0.866323
1.826747 2.981337 0.271672 0.934011 0.810041
1.826747 2.981337 0.271672 0.934011 0.810041
1.826747 3.238099 0.643064 0.978924 0.769291
1.826747 2.286504 0.018623 0.733339 1.000158
0.913373 2.286504 0.018623 0.733339 0.941148
0.913373 2.981337 0.271672 0.824090 0.941148
1.826747 2.981337 0.271672 0.824090 1.000158
0.913373 2.286504 0.018623 0.836141 0.866323
0.913373 2.350868 1.070674 0.845548 0.707219
0.913373 3.238099 0.643064 0.975233 0.771137
0.913373 3.238099 0.643064 0.975233 0.771137
0.913373 2.981337 0.271672 0.932165 0.808195
0.913373 2.286504 0.018623 0.836141 0.866323
0.913373 2.350868 1.070674 0.845548 0.707219
0.913373 2.686335 1.437953 0.894583 0.652319
0.913373 3.319154 1.083919 0.987080 0.705239
0.913373 3.319154 1.083919 0.987080 0.705239
0.913373 3.238099 0.643064 0.975233 0.771137
0.913373 2.350868 1.070674 0.845548 0.707219
0.913373 2.686335 1.437953 0.073080 0.171315
0.913373 3.113533 1.636226 0.036949 0.171315
0.913373 3.258734 1.436653 0.024668 0.171315
0.913373 3.319154 1.083919 0.019558 0.171315
0.913373 3.179791 1.758294 0.031345 0.171315
1.826747 3.184075 1.754065 0.030983 0.017048
1.826747 3.359187 1.507592 0.016172 0.017048
1.826747 3.359187 1.507592 0.016172 0.017048
0.913373 3.359187 1.507592 0.016172 0.171315
0.913373 3.179791 1.758294 0.031345 0.171315
1.902753 3.319154 1.083919 0.983912 0.578536
1.902753 3.258733 1.436653 0.975173 0.527514
-0.913373 2.686335 1.437953 0.891241 0.654164
-0.913373 2.350868 1.070674 0.842391 0.709065
-0.913373 3.238099 0.643064 0.971586 0.772983
-0.913373 3.238099 0.643064 0.971586 0.772983
-0.913373 3.319154 1.083919 0.983389 0.707085
-0.913373 2.686335 1.437953 0.891241 0.654164
-0.913373 2.350868 1.070674 0.842391 0.709065
-0.913373 2.286504 0.018623 0.833019 0.866323
-0.913373 2.981337 0.271672 0.924969 0.813732
-0.913373 2.981337 0.271672 0.924969 0.813732
-0.913373 3.238099 0.643064 0.971586 0.772983
-0.913373 2.350868 1.070674 0.842391 0.709065
-0.913373 2.286504 0.018623 0.734478 0.939250
-1.826746 2.286504 0.018623 0.734478 0.880240
-1.826746 2.981337 0.271672 0.824462 0.880240
-0.913373 2.981337 0.271672 0.824462 0.939250
-1.826746 2.286504 0.018623 0.836425 0.868169
-1.826746 3.238099 0.643064 0.975255 0.771137
-1.826746 3.238099 0.643064 0.975255 0.771137
-1.826746 2.981337 0.271672 0.930413 0.813732
-1.826746 2.286504 0.018623 0.836425 0.868169
-1.826746 3.319154 1.083919 0.979697 0.692319
-1.826746 3.319154 1.083919 0.979697 0.692319
-1.826746 3.238099 0.643064 0.975255 0.771137
-1.902752 3.258733 1.436653 0.975173 0.527514
-1.902752 3.319154 1.083919 0.983912 0.578536
-1.826746 3.184075 1.754065 0.030983 0.634115
-0.913373 3.179791 1.758294 0.031345 0.479848
-0.913373 3.359187 1.507592 0.016172 0.479848
-0.913373 3.359187 1.507592 0.016172 0.479848
-1.826746 3.359187 1.507592 0.016172 0.634115
-1.826746 3.184075 1.754065 0.030983 0.634115
-0.913373 3.113533 1.636226 0.036949 0.479848
-0.913373 2.686335 1.437953 0.073080 0.479848
-0.913373 3.319154 1.083919 0.019558 0.479848
-0.913373 3.319154 1.083919 0.019558 0.479848
-0.913373 3.258734 1.436653 0.024668 0.479848
-0.913373 -2.271352 1.169558 0.169325 0.694284
-0.913373 -2.689835 1.437953 0.108387 0.654164
-0.913373 -3.370797 1.015669 0.020303 0.709904
-0.913373 -3.370797 1.015669 0.020303 0.709904
-0.913373 -3.255865 0.643064 0.025964 0.772983
-0.913373 -2.271352 1.169558 0.169325 0.694284
-0.913373 -2.689835 1.437953 0.527786 0.479848
-0.913373 -3.178856 1.645490 0.569146 0.479848
-0.913373 -3.322654 1.366148 0.581308 0.479848
-0.913373 -3.370797 1.015669 0.585380 0.479848
-0.913435 -3.243279 1.769246 0.574595 0.479859
-1.826746 -3.251908 1.760651 0.575325 0.634115
-1.826746 -3.428229 1.422768 0.590237 0.634115
-1.826746 -3.428229 1.422768 0.590237 0.634115
-0.913373 -3.428229 1.422768 0.590237 0.479848
-0.913435 -3.243279 1.769246 0.574595 0.479859
-1.902752 -3.370797 1.015669 0.016228 0.588408
-1.902752 -3.322654 1.366148 0.023192 0.537712
-1.826746 -3.255864 0.643064 0.027842 0.771137
-1.826746 -3.255864 0.643064 0.027842 0.771137
-1.826746 -3.370797 1.015669 0.020303 0.695138
-1.826746 -2.200956 0.018623 0.178053 0.860786
-1.826746 -2.966969 0.269246 0.079218 0.812249
-1.826746 -2.966969 0.269246 0.079218 0.812249
-1.826746 -3.255864 0.643064 0.027842 0.771137
-1.826746 -2.200956 0.018623 0.285839 0.880240
-0.913373 -2.200956 0.018623 0.285839 0.939250
-0.913373 -2.966969 0.269246 0.192697 0.939250
-1.826746 -2.966969 0.269246 0.192697 0.880240
-0.913373 -2.200956 0.018623 0.179575 0.866323
-0.913373 -2.271352 1.169558 0.169325 0.694284
-0.913373 -3.255865 0.643064 0.025964 0.772983
-0.913373 -3.255865 0.643064 0.025964 0.772983
-0.913373 -2.966969 0.269246 0.084643 0.815940
-0.913373 -2.200956 0.018623 0.179575 0.866323
0.913373 -2.689834 1.437953 0.108763 0.652319
0.913373 -2.271352 1.169558 0.169931 0.692438
0.913373 -3.255865 0.643064 0.026028 0.771137
0.913373 -3.255865 0.643064 0.026028 0.771137
0.913373 -3.370797 1.015669 0.009228 0.715441
0.913373 -2.689834 1.437953 0.108763 0.652319
0.913373 -2.271352 1.169558 0.169931 0.692438
0.913373 -2.200956 0.018623 0.180221 0.866323
0.913373 -2.966969 0.269246 0.081175 0.815940
0.913373 -2.966969 0.269246 0.081175 0.815940
0.913373 -3.255865 0.643064 0.026028 0.771137
0.913373 -2.271352 1.169558 0.169931 0.692438
0.913373 -2.200956 0.018623 0.287131 0.941148
1.826747 -2.200956 0.018623 0.287131 1.000158
1.826747 -2.966969 0.269246 0.193142 1.000158
0.913373 -2.966969 0.269246 0.193142 0.941148
1.826747 -2.200956 0.018623 0.183912 0.866323
1.826747 -3.255865 0.643064 0.029719 0.769291
1.826747 -3.255865 0.643064 0.029719 0.769291
1.826747 -2.966969 0.269246 0.079329 0.814095
1.826747 -2.200956 0.018623 0.183912 0.866323
1.826747 -3.370797 1.015669 0.022148 0.704367
1.826747 -3.370797 1.015669 0.022148 0.704367
1.826747 -3.255865 0.643064 0.029719 0.769291
1.902753 -3.322654 1.366148 0.023192 0.537712
1.902753 -3.370797 1.015669 0.016228 0.588408
1.826747 -3.251908 1.760651 0.575325 0.017048
0.913435 -3.243279 1.769246 0.574595 0.171304
0.913373 -3.428229 1.422768 0.590237 0.171315
0.913373 -3.428229 1.422768 0.590237 0.171315
1.826747 -3.428229 1.422768 0.590237 0.017048
1.826747 -3.251908 1.760651 0.575325 0.017048
0.913373 -3.178856 1.645490 0.569146 0.171315
0.913373 -2.689834 1.437953 0.527786 0.171315
0.913373 -3.370797 1.015669 0.585380 0.171315
0.913373 -3.370797 1.015669 0.585380 0.171315
0.913373 -3.322654 1.366148 0.581308 0.171315
1.902753 -2.719550 2.074158 0.530299 0.004211
1.902753 -1.620811 2.238059 0.437370 0.004211
1.826747 -2.719550 2.074158 0.530299 0.017048
1.826747 -3.251908 1.760651 0.575325 0.017048
1.902753 -3.251908 1.760651 0.575325 0.004211
1.902753 -2.719550 2.074158 0.530299 0.004211
1.902753 -3.428229 1.422768 0.590237 0.004211
1.902753 -3.251908 1.760651 0.575325 0.004211
1.902753 -3.482989 1.042346 0.594869 0.004211
1.902753 -3.428229 1.422768 0.590237 0.004211
1.826747 -3.370797 1.015669 0.585380 0.017048
1.826747 -2.689834 1.437953 0.527786 0.017048
1.902753 -2.689834 1.437953 0.527786 0.004211
1.902753 -2.689834 1.437953 0.527786 0.004211
1.902753 -3.370797 1.015669 0.585380 0.004211
1.826747 -3.370797 1.015669 0.585380 0.017048
1.826747 -2.689834 1.437953 0.527786 0.017048
1.826747 -1.614601 1.437953 0.436845 0.017048
1.902753 -1.614601 1.437953 0.436845 0.004211
1.902753 -1.614601 1.437953 0.436845 0.004211
1.902753 -2.689834 1.437953 0.527786 0.004211
1.826747 -2.689834 1.437953 0.527786 0.017048
1.826747 -1.614601 1.437953 0.436845 0.017048
1.826747 -0.539367 1.437953 0.345904 0.017048
1.902753 -0.539367 1.437953 0.345904 0.004211
1.902753 -0.539367 1.437953 0.345904 0.004211
1.902753 -1.614601 1.437953 0.436845 0.004211
1.826747 -1.614601 1.437953 0.436845 0.017048
1.826747 -0.539367 1.437953 0.345904 0.017048
1.826747 0.535867 1.437953 0.254963 0.017048
1.902753 0.535867 1.437953 0.254963 0.004211
1.902753 0.535867 1.437953 0.254963 0.004211
1.902753 -0.539367 1.437953 0.345904 0.004211
1.826747 -0.539367 1.437953 0.345904 0.017048
1.826747 0.535867 1.437953 0.254963 0.017048
1.826747 1.611101 1.437953 0.164022 0.017048
1.902753 1.611101 1.437953 0.164022 0.004211
1.902753 1.611101 1.437953 0.164022 0.004211
1.902753 0.535867 1.437953 0.254963 0.004211
1.826747 0.535867 1.437953 0.254963 0.017048
1.826747 1.611101 1.437953 0.164022 0.017048
1.826747 2.686335 1.437953 0.073081 0.017048
1.902753 2.686335 1.437953 0.073081 0.004211
1.902753 2.686335 1.437953 0.073081 0.004211
1.902753 1.611101 1.437953 0.164022 0.004211
1.826747 1.611101 1.437953 0.164022 0.017048
1.826747 2.686335 1.437953 0.073081 0.017048
1.826747 3.319154 1.083919 0.019558 0.017048
1.902753 3.319154 1.083919 0.019558 0.004211
1.902753 3.319154 1.083919 0.019558 0.004211
1.902753 2.686335 1.437953 0.073081 0.004211
1.826747 2.686335 1.437953 0.073081 0.017048
1.902753 3.359187 1.507592 0.016172 0.004211
1.902753 3.359187 1.507592 0.016172 0.004211
1.902753 3.430374 1.116897 0.010151 0.004211
1.826747 3.430373 1.116897 0.010151 0.017048
1.826747 3.359187 1.507592 0.016172 0.017048
1.826747 3.184075 1.754065 0.030983 0.017048
1.902753 3.184075 1.754065 0.030983 0.004211
1.902753 3.359187 1.507592 0.016172 0.004211
1.902753 2.720695 2.106329 0.070174 0.004211
1.902753 3.184075 1.754065 0.030983 0.004211
1.902753 1.615960 2.234087 0.163611 0.004211
1.902753 2.720695 2.106329 0.070174 0.004211
1.902753 0.535867 2.234223 0.254963 0.004211
1.902753 1.615960 2.234087 0.163611 0.004211
1.902753 -0.539203 2.234223 0.345890 0.004211
1.902753 0.535867 2.234223 0.254963 0.004211
1.902753 -1.620811 2.238059 0.437370 0.004211
1.902753 -0.539203 2.234223 0.345890 0.004211
-1.902752 -1.620812 2.238059 0.437370 0.646952
-1.902752 -2.719550 2.074158 0.530299 0.646952
-1.902752 -0.539203 2.234223 0.345890 0.646952
-1.902752 -1.620812 2.238059 0.437370 0.646952
-1.902752 0.535867 2.234223 0.254963 0.646952
-1.902752 -0.539203 2.234223 0.345890 0.646952
-1.902752 1.615960 2.234087 0.163611 0.646952
-1.902752 0.535867 2.234223 0.254963 0.646952
-1.902752 2.720695 2.106329 0.070174 0.646952
-1.902752 1.615960 2.234087 0.163611 0.646952
-1.826746 2.720695 2.106329 0.070174 0.634115
-1.826746 3.184075 1.754065 0.030983 0.634115
-1.902752 3.184075 1.754065 0.030983 0.646952
-1.902752 2.720695 2.106329 0.070174 0.646952
-1.902752 3.359187 1.507592 0.016172 0.646952
-1.902752 3.184075 1.754065 0.030983 0.646952
-1.902752 3.430374 1.116897 0.010151 0.646952
-1.902752 3.359187 1.507592 0.016172 0.646952
-1.826746 3.319154 1.083919 0.019558 0.634115
-1.826746 2.686335 1.437953 0.073080 0.634115
-1.902752 2.686335 1.437953 0.073080 0.646952
-1.902752 2.686335 1.437953 0.073080 0.646952
-1.902752 3.319154 1.083919 0.019558 0.646952
-1.826746 3.319154 1.083919 0.019558 0.634115
-1.826746 2.686335 1.437953 0.073080 0.634115
-1.826746 1.611101 1.437953 0.164022 0.634115
-1.902752 1.611101 1.437953 0.164022 0.646952
-1.902752 1.611101 1.437953 0.164022 0.646952
-1.902752 2.686335 1.437953 0.073080 0.646952
-1.826746 2.686335 1.437953 0.073080 0.634115
-1.826746 1.611101 1.437953 0.164022 0.634115
-1.826746 0.535867 1.437953 0.254963 0.634115
-1.902752 0.535867 1.437953 0.254963 0.646952
-1.902752 0.535867 1.437953 0.254963 0.646952
-1.902752 1.611101 1.437953 0.164022 0.646952
-1.826746 1.611101 1.437953 0.164022 0.634115
-1.826746 0.535867 1.437953 0.254963 0.634115
-1.826746 -0.539367 1.437953 0.345903 0.634115
-1.902752 -0.539367 1.437953 0.345903 0.646952
-1.902752 -0.539367 1.437953 0.345903 0.646952
-1.902752 0.535867 1.437953 0.254963 0.646952
-1.826746 0.535867 1.437953 0.254963 0.634115
-1.826746 -0.539367 1.437953 0.345903 0.634115
-1.826746 -1.614601 1.437953 0.436845 0.634115
-1.902752 -1.614601 1.437953 0.436845 0.646952
-1.902752 -1.614601 1.437953 0.436845 0.646952
-1.902752 -0.539367 1.437953 0.345903 0.646952
-1.826746 -0.539367 1.437953 0.345903 0.634115
-1.826746 -1.614601 1.437953 0.436845 0.634115
-1.826746 -2.689835 1.437953 0.527786 0.634115
-1.902752 -2.689834 1.437953 0.527785 0.646952
-1.902752 -2.689834 1.437953 0.527785 0.646952
-1.902752 -1.614601 1.437953 0.436845 0.646952
-1.826746 -1.614601 1.437953 0.436845 0.634115
-1.826746 -2.689835 1.437953 0.527786 0.634115
-1.826746 -3.370797 1.015669 0.585380 0.634115
-1.902752 -3.370797 1.015669 0.585380 0.646952
-1.902752 -3.370797 1.015669 0.585380 0.646952
-1.902752 -2.689834 1.437953 0.527785 0.646952
-1.826746 -2.689835 1.437953 0.527786 0.634115
-1.902752 -3.428229 1.422768 0.590237 0.646952
-1.902752 -3.482989 1.042346 0.594869 0.646952
-1.826746 -3.428229 1.422768 0.590237 0.634115
-1.826746 -3.251908 1.760651 0.575325 0.634115
-1.902752 -3.251908 1.760651 0.575325 0.646952
-1.902752 -3.428229 1.422768 0.590237 0.646952
-1.902752 -2.719550 2.074158 0.530299 0.646952
-1.902752 -3.251908 1.760651 0.575325 0.646952
-1.826746 -3.370797 1.015669 0.585380 0.634115
-0.913373 -3.370797 1.015669 0.585380 0.479848
-0.913373 -3.482989 1.042346 0.594869 0.479848
-0.913373 -3.482989 1.042346 0.594869 0.479848
-1.826746 -3.482989 1.042346 0.594869 0.634115
-1.826746 -3.370797 1.015669 0.585380 0.634115
-0.913373 -3.370797 1.015669 0.585380 0.479848
-0.913373 -3.428229 1.422768 0.590237 0.479848
-0.913373 -3.482989 1.042346 0.594869 0.479848
-0.913373 -3.370797 1.015669 0.585380 0.479848
-0.913373 -3.322654 1.366148 0.581308 0.479848
-0.913373 -3.178856 1.645490 0.569146 0.479848
-0.913435 -3.243279 1.769246 0.574595 0.479859
-0.913435 -3.243279 1.769246 0.574595 0.479859
-0.913373 -3.428229 1.422768 0.590237 0.479848
-0.913373 -3.322654 1.366148 0.581308 0.479848
-0.913373 -3.178856 1.645490 0.569146 0.479848
0.000000 -3.167182 1.654351 0.568159 0.325581
0.000000 -3.212910 1.791757 0.572026 0.325581
0.000000 -3.212910 1.791757 0.572026 0.325581
-0.913435 -3.243279 1.769246 0.574595 0.479859
-0.913373 -3.178856 1.645490 0.569146 0.479848
0.000000 -3.167182 1.654351 0.568159 0.325581
0.913373 -3.178856 1.645490 0.569146 0.171315
0.913435 -3.243279 1.769246 0.574595 0.171304
0.913435 -3.243279 1.769246 0.574595 0.171304
0.000000 -3.212910 1.791757 0.572026 0.325581
0.000000 -3.167182 1.654351 0.568159 0.325581
0.913373 -3.428229 1.422768 0.590237 0.171315
0.913373 -3.428229 1.422768 0.590237 0.171315
0.913435 -3.243279 1.769246 0.574595 0.171304
0.913373 -3.178856 1.645490 0.569146 0.171315
0.913373 -3.370797 1.015669 0.585380 0.171315
0.913373 -3.482988 1.042346 0.594869 0.171315
0.913373 -3.370797 1.015669 0.585380 0.171315
1.826747 -3.370797 1.015669 0.585380 0.017048
1.826747 -3.482989 1.042346 0.594869 0.017048
0.913373 -3.482988 1.042346 0.594869 0.171315
0.913373 -3.370797 1.015669 0.585380 0.171315
1.826747 -3.370797 1.015669 0.585380 0.017048
1.902753 -3.370797 1.015669 0.585380 0.004211
1.902753 -3.482989 1.042346 0.594869 0.004211
1.826747 -3.370797 1.015669 0.585380 0.017048
1.902753 -3.428229 1.422768 0.007921 0.529522
1.902753 -3.428229 1.422768 0.007921 0.529522
1.902753 -3.482989 1.042346 0.000000 0.584549
1.902753 -3.251908 1.760651 0.033425 0.480648
1.902753 -3.251908 1.760651 0.033425 0.480648
1.902753 -3.428229 1.422768 0.007921 0.529522
1.902753 -2.719550 2.074158 0.110429 0.435300
1.902753 -2.719550 2.074158 0.110429 0.435300
1.902753 -3.251908 1.760651 0.033425 0.480648
1.902753 -1.620811 2.238059 0.269359 0.411592
1.902753 -1.620811 2.238059 0.269359 0.411592
1.902753 -2.719550 2.074158 0.110429 0.435300
1.902753 -0.539203 2.234223 0.425811 0.412147
1.902753 -0.539203 2.234223 0.425811 0.412147
1.902753 -1.620811 2.238059 0.269359 0.411592
1.902753 0.535867 2.234223 0.581317 0.412147
1.902753 0.535867 2.234223 0.581317 0.412147
1.902753 -0.539203 2.234223 0.425811 0.412147
1.902753 1.615960 2.234087 0.737550 0.412167
1.902753 1.615960 2.234087 0.737550 0.412167
1.902753 0.535867 2.234223 0.581317 0.412147
1.902753 2.720695 2.106329 0.897347 0.430647
1.902753 2.720695 2.106329 0.897347 0.430647
1.902753 1.615960 2.234087 0.737550 0.412167
1.902753 3.184075 1.754065 0.964374 0.481601
1.902753 3.184075 1.754065 0.964374 0.481601
1.902753 2.720695 2.106329 0.897347 0.430647
1.902753 3.359187 1.507592 0.989703 0.517252
1.902753 3.359187 1.507592 0.989703 0.517252
1.902753 3.184075 1.754065 0.964374 0.481601
1.902753 3.430374 1.116897 1.000000 0.573765
1.902753 3.430374 1.116897 1.000000 0.573765
1.902753 3.359187 1.507592 0.989703 0.517252
1.902753 3.319154 1.083919 0.019558 0.004211
1.826747 3.319154 1.083919 0.019558 0.017048
1.826747 3.430373 1.116897 0.010151 0.017048
1.826747 3.430373 1.116897 0.010151 0.017048
1.902753 3.430374 1.116897 0.010151 0.004211
1.902753 3.319154 1.083919 0.019558 0.004211
1.826747 3.319154 1.083919 0.019558 0.017048
0.913373 3.319154 1.083919 0.019558 0.171315
0.913373 3.430373 1.116897 0.010151 0.171315
1.826747 3.319154 1.083919 0.019558 0.017048
0.913373 3.319154 1.083919 0.019558 0.171315
0.913373 3.359187 1.507592 0.016172 0.171315
0.913373 3.430373 1.116897 0.010151 0.171315
0.913373 3.319154 1.083919 0.019558 0.171315
0.913373 3.179791 1.758294 0.031345 0.171315
0.913373 3.113533 1.636226 0.036949 0.171315
0.000000 3.113533 1.636226 0.036949 0.325581
0.000000 3.170876 1.765872 0.032099 0.325581
0.000000 3.170876 1.765872 0.032099 0.325581
0.913373 3.179791 1.758294 0.031345 0.171315
0.913373 3.113533 1.636226 0.036949 0.171315
0.000000 3.113533 1.636226 0.036949 0.325581
-0.913373 3.113533 1.636226 0.036949 0.479848
-0.913373 3.179791 1.758294 0.031345 0.479848
-0.913373 3.179791 1.758294 0.031345 0.479848
0.000000 3.170876 1.765872 0.032099 0.325581
0.000000 3.113533 1.636226 0.036949 0.325581
-0.913373 3.359187 1.507592 0.016172 0.479848
-0.913373 3.179791 1.758294 0.031345 0.479848
-0.913373 3.319154 1.083919 0.019558 0.479848
-0.913373 3.430374 1.116897 0.010151 0.479848
-0.913373 3.319154 1.083919 0.019558 0.479848
-1.826746 3.319154 1.083919 0.019558 0.634115
-1.826746 3.430374 1.116897 0.010151 0.634115
-0.913373 3.430374 1.116897 0.010151 0.479848
-0.913373 3.319154 1.083919 0.019558 0.479848
-1.826746 3.319154 1.083919 0.019558 0.634115
-1.902752 3.319154 1.083919 0.019558 0.646952
-1.902752 3.430374 1.116897 0.010151 0.646952
-1.826746 3.430374 1.116897 0.010151 0.634115
-1.826746 3.319154 1.083919 0.019558 0.634115
-1.902752 3.359187 1.507592 0.989703 0.517252
-1.902752 3.359187 1.507592 0.989703 0.517252
-1.902752 3.430374 1.116897 1.000000 0.573765
-1.902752 3.184075 1.754065 0.964374 0.481601
-1.902752 3.184075 1.754065 0.964374 0.481601
-1.902752 3.359187 1.507592 0.989703 0.517252
-1.902752 2.720695 2.106329 0.897347 0.430647
-1.902752 2.720695 2.106329 0.897347 0.430647
-1.902752 3.184075 1.754065 0.964374 0.481601
-1.902752 1.615960 2.234087 0.737550 0.412167
-1.902752 1.615960 2.234087 0.737550 0.412167
-1.902752 2.720695 2.106329 0.897347 0.430647
-1.902752 0.535867 2.234223 0.581317 0.412147
-1.902752 0.535867 2.234223 0.581317 0.412147
-1.902752 1.615960 2.234087 0.737550 0.412167
-1.902752 -0.539203 2.234223 0.425811 0.412147
-1.902752 -0.539203 2.234223 0.425811 0.412147
-1.902752 0.535867 2.234223 0.581317 0.412147
-1.902752 -1.620812 2.238059 0.269359 0.411592
-1.902752 -1.620812 2.238059 0.269359 0.411592
-1.902752 -0.539203 2.234223 0.425811 0.412147
-1.902752 -2.719550 2.074158 0.110429 0.435300
-1.902752 -2.719550 2.074158 0.110429 0.435300
-1.902752 -1.620812 2.238059 0.269359 0.411592
-1.902752 -3.251908 1.760651 0.033425 0.480648
-1.902752 -3.251908 1.760651 0.033425 0.480648
-1.902752 -2.719550 2.074158 0.110429 0.435300
-1.902752 -3.428229 1.422768 0.007921 0.529522
-1.902752 -3.428229 1.422768 0.007921 0.529522
-1.902752 -3.251908 1.760651 0.033425 0.480648
-1.902752 -3.482989 1.042346 0.000000 0.584549
-1.902752 -3.482989 1.042346 0.000000 0.584549
-1.902752 -3.428229 1.422768 0.007921 0.529522
-1.902752 -3.370797 1.015669 0.585380 0.646952
-1.826746 -3.370797 1.015669 0.585380 0.634115
-1.902752 -3.482989 1.042346 0.594869 0.646952
-1.902752 -3.370797 1.015669 0.585380 0.646952
3 0 1 2
3 2 3 0
3 4 5 6
3 6 7 4
3 7 6 8
3 9 10 11
3 12 13 14
3 14 15 12
3 1 16 17
3 17 2 1
3 18 19 20
3 20 21 18
3 21 20 22
3 22 23 21
3 13 24 25
3 25 14 13
3 16 26 27
3 27 17 16
3 19 28 29
3 29 20 19
3 20 29 30
3 30 22 20
3 24 31 32
3 32 25 24
3 26 33 34
3 34 27 26
3 28 35 36
3 36 29 28
3 29 36 37
3 37 30 29
3 31 38 39
3 39 32 31
3 33 40 41
3 41 34 33
3 42 43 44
3 44 45 42
3 45 44 46
3 46 47 45
3 38 48 49
3 49 39 38
3 50 51 52
3 52 53 50
3 54 55 56
3 57 52 51
3 58 59 60
3 61 62 63
3 64 65 66
3 66 67 64
3 68 69 70
3 70 71 68
3 69 72 73
3 73 70 69
3 72 74 75
3 75 73 72
3 74 76 77
3 77 75 74
3 78 79 80
3 80 81 78
3 79 82 83
3 83 80 79
3 82 84 85
3 85 83 82
3 84 86 87
3 87 85 84
3 88 89 90
3 90 91 88
3 89 92 93
3 93 90 89
3 92 94 95
3 95 93 92
3 94 96 97
3 97 95 94
3 98 99 100
3 100 101 98
3 99 102 103
3 103 100 99
3 102 104 105
3 105 103 102
3 104 106 107
3 107 105 104
3 108 109 110
3 111 112 113
3 114 115 116
3 116 117 114
3 118 119 120
3 121 116 115
3 122 123 124
3 124 125 122
3 126 127 128
3 128 129 126
3 130 131 132
3 133 134 135
3 136 137 138
3 139 140 141
3 142 143 144
3 145 146 147
3 148 149 150
3 151 152 153
3 154 155 156
3 157 158 159
3 160 161 162
3 163 164 165
3 166 167 168
3 169 170 171
3 172 173 174
3 174 175 172
3 173 176 177
3 177 174 173
3 176 178 179
3 179 177 176
3 178 180 181
3 181 179 178
3 180 182 183
3 183 181 180
3 184 185 186
3 186 187 184
3 185 188 189
3 189 186 185
3 188 190 191
3 191 189 188
3 190 192 193
3 193 191 190
3 192 194 195
3 195 193 192
3 196 187 186
3 186 197 196
3 186 189 198
3 198 197 186
3 189 191 199
3 199 198 189
3 191 193 200
3 200 199 191
3 193 195 201
3 201 200 193
3 202 203 204
3 204 205 202
3 206 207 208
3 208 209 206
3 207 210 211
3 211 208 207
3 212 213 214
3 214 215 212
3 216 217 218
3 218 219 216
3 220 221 222
3 222 223 220
3 221 224 225
3 225 222 221
3 226 227 228
3 228 229 226
3 230 231 232
3 233 234 235
3 236 237 238
3 239 240 241
3 242 243 244
3 245 246 247
3 248 249 250
3 251 252 253
3 254 255 256
3 256 257 254
3 255 258 259
3 259 256 255
3 258 260 261
3 261 259 258
3 260 262 263
3 263 261 260
3 262 264 265
3 265 263 262
3 266 267 268
3 268 269 266
3 267 270 271
3 271 268 267
3 270 272 273
3 273 271 270
3 272 274 275
3 275 273 272
3 274 276 277
3 277 275 274
3 269 268 278
3 278 279 269
3 268 271 280
3 280 278 268
3 271 273 281
3 281 280 271
3 273 275 282
3 282 281 273
3 275 277 283
3 283 282 275
3 264 262 284
3 264 285 286
3 262 260 287
3 288 289 262
3 260 258 290
3 291 292 260
3 258 255 293
3 294 295 258
3 255 254 296
3 297 298 255
3 299 300 301
3 301 302 299
3 303 304 305
3 306 307 308
3 309 310 311
3 312 313 314
3 315 316 317
3 318 319 320
3 321 322 323
3 324 325 326
3 327 328 329
3 330 331 332
3 333 334 335
3 335 336 333
3 337 338 339
3 340 341 342
3 343 344 345
3 346 347 348
3 349 350 351
3 352 353 354
3 355 356 357
3 358 359 360
3 361 362 363
3 364 365 366
3 367 368 369
3 369 370 367
3 182 180 371
3 372 373 182
3 180 178 374
3 375 376 180
3 178 176 377
3 378 379 178
3 176 173 380
3 381 382 176
3 173 172 383
3 384 385 173
3 386 387 388
3 388 389 386
3 183 182 390
3 391 392 183
3 182 393 394
3 395 396 182
3 397 398 399
3 399 400 397
3 401 402 403
3 404 405 406
3 407 408 409
3 410 411 412
3 413 414 415
3 415 416 413
3 417 418 419
3 420 421 422
3 195 194 423
3 423 424 195
3 425 426 427
3 428 429 430
3 431 432 433
3 434 435 436
3 437 438 439
3 439 440 437
3 441 254 442
3 443 444 445
3 254 257 446
3 447 448 254
3 266 269 449
3 449 450 266
3 451 452 453
3 454 455 456
3 457 458 459
3 460 461 457
3 462 463 464
3 465 466 467
3 468 469 470
3 470 471 468
3 472 473 474
3 475 476 477
3 277 276 478
3 478 479 277
3 265 264 480
3 481 482 265
3 264 483 484
3 264 485 486
3 487 488 489
3 489 490 487
3 491 492 493
3 494 495 496
3 497 498 499
3 500 501 502
3 503 504 505
3 506 507 508
3 509 510 511
3 511 512 509
3 513 172 514
3 515 516 517
3 172 175 518
3 519 520 172
3 184 187 521
3 521 522 184
3 523 524 525
3 526 527 528
3 529 530 531
3 532 533 529
3 66 65 534
3 534 535 66
3 536 537 538
3 538 539 536
3 528 527 540
3 540 541 528
3 144 143 542
3 542 543 144
3 544 545 546
3 547 548 549
3 550 551 552
3 553 554 555
3 556 557 558
3 559 560 561
3 562 563 564
3 565 566 567
3 568 569 570
3 571 572 573
3 574 575 576
3 577 578 579
3 580 581 582
3 583 584 585
3 216 219 586
3 587 588 589
3 590 591 592
3 592 593 590
3 235 234 594
3 594 595 235
3 107 106 596
3 596 597 107
3 97 96 598
3 598 599 97
3 87 86 600
3 600 601 87
3 77 76 602
3 602 603 77
3 50 53 604
3 604 605 50
3 68 71 606
3 606 607 68
3 78 81 608
3 608 609 78
3 88 91 610
3 610 611 88
3 98 101 612
3 612 613 98
3 614 615 616
3 616 617 614
3 456 455 618
3 618 619 456
3 228 227 620
3 620 621 228
3 622 623 624
3 625 626 627
3 628 629 630
3 631 632 633
3 634 635 636
3 637 638 639
3 640 641 642
3 643 644 645
3 646 647 648
3 649 650 651
3 652 653 654
3 655 656 657
3 658 659 660
3 661 662 663
3 126 129 664
3 664 665 126
3 666 667 668
3 668 669 666
3 153 152 670
3 670 671 153
3 672 673 674
3 675 676 677
3 678 470 679
3 679 680 681
3 682 683 684
3 685 686 687
3 688 689 690
3 691 692 693
3 694 695 696
3 697 698 699
3 529 533 700
3 701 702 703
3 533 704 705
3 705 700 533
3 706 707 708
3 708 709 710
3 711 712 713
3 713 708 714
3 522 521 715
3 716 717 522
3 521 187 718
3 719 720 521
3 187 196 721
3 722 723 187
3 196 197 724
3 725 726 196
3 197 198 727
3 728 729 197
3 198 199 730
3 731 732 198
3 199 200 733
3 734 735 199
3 200 201 736
3 737 738 200
3 201 195 739
3 740 741 201
3 195 424 742
3 743 744 195
3 424 423 745
3 746 747 424
3 748 749 750
3 751 752 753
3 754 755 756
3 756 750 757
3 758 415 759
3 759 760 761
3 415 414 762
3 762 759 415
3 763 764 765
3 766 767 768
3 769 770 771
3 772 773 774
3 457 461 775
3 775 776 457
3 461 777 778
3 778 775 461
3 779 780 781
3 781 782 783
3 784 785 786
3 786 787 788
3 450 449 789
3 790 791 450
3 449 269 792
3 793 794 449
3 269 279 795
3 796 797 269
3 279 278 798
3 799 800 279
3 278 280 801
3 802 803 278
3 280 281 804
3 805 806 280
3 281 282 807
3 808 809 281
3 282 283 810
3 811 812 282
3 283 277 813
3 814 815 283
3 277 479 816
3 817 818 277
3 479 478 819
3 820 821 479
3 822 823 676
3 676 824 825
