ply
format ascii 1.0
comment Created by Blender 2.60 (sub 0) - www.blender.org, source file: ''
element vertex 230
property float x
property float y
property float z
property float s
property float t
element face 90
property list uchar uint vertex_indices
end_header
-0.793774 -0.614736 1.369979 0.154460 0.505120
-0.296976 -0.614736 1.470829 0.244810 0.505120
-0.296977 -0.233087 1.534768 0.244810 0.425741
-0.793774 -0.233087 1.433917 0.154460 0.425741
-0.296976 -0.614736 1.470829 0.244810 0.505120
0.299745 -0.614736 1.470829 0.353331 0.505120
0.299745 -0.233087 1.534768 0.353331 0.425741
-0.296977 -0.233087 1.534768 0.244810 0.425741
0.299745 -0.614736 1.470829 0.353331 0.505120
0.806479 -0.614736 1.381243 0.445488 0.505120
0.806479 -0.233087 1.445182 0.445488 0.425741
0.299745 -0.233087 1.534768 0.353331 0.425741
-0.793774 -0.233087 1.433917 0.154460 0.425741
-0.296977 -0.233087 1.534768 0.244810 0.425741
-0.296976 0.229723 1.534768 0.244810 0.329481
-0.793774 0.229723 1.433917 0.154460 0.329481
-0.296977 -0.233087 1.534768 0.244810 0.425741
0.299745 -0.233087 1.534768 0.353331 0.425741
0.299745 0.229723 1.534768 0.353331 0.329481
-0.296976 0.229723 1.534768 0.244810 0.329481
0.299745 -0.233087 1.534768 0.353331 0.425741
0.806479 -0.233087 1.445182 0.445488 0.425741
0.806479 0.229722 1.445182 0.445488 0.329481
0.299745 0.229723 1.534768 0.353331 0.329481
-0.793774 0.229723 1.433917 0.154460 0.329481
-0.296976 0.229723 1.534768 0.244810 0.329481
-0.296976 0.599294 1.494385 0.244810 0.252614
-0.793774 0.599294 1.393534 0.154460 0.252614
-0.296976 0.229723 1.534768 0.244810 0.329481
0.299745 0.229723 1.534768 0.353331 0.329481
0.299745 0.599294 1.494385 0.353331 0.252614
-0.296976 0.599294 1.494385 0.244810 0.252614
0.299745 0.229723 1.534768 0.353331 0.329481
0.806479 0.229722 1.445182 0.445488 0.329481
0.806479 0.599294 1.404798 0.445488 0.252614
0.299745 0.599294 1.494385 0.353331 0.252614
-1.274103 -1.084362 0.000000 0.630903 0.235783
-0.547698 -1.274362 0.000000 0.767603 0.244095
-0.547698 -1.161659 0.463738 0.767313 0.154604
-1.274103 -1.084362 0.000000 0.630903 0.235783
-0.547698 -1.161659 0.463738 0.767313 0.154604
-1.099232 -0.971659 0.700471 0.663404 0.103153
-0.547698 -1.274362 0.000000 0.767603 0.244095
0.547698 -1.274362 0.000000 0.973004 0.243400
0.547698 -1.161659 0.463738 0.972713 0.153909
-0.547698 -1.161659 0.463738 0.767313 0.154604
0.547698 -1.274362 0.000000 0.973004 0.243400
1.183195 -1.105592 0.000000 1.091733 0.235205
1.024505 -0.992888 0.695829 1.061686 0.103630
1.024505 -0.992888 0.695829 1.061686 0.103630
0.547698 -1.161659 0.463738 0.972713 0.153909
0.547698 -1.274362 0.000000 0.973004 0.243400
-1.099232 -0.971659 0.700471 0.663404 0.103153
-0.547698 -1.161659 0.463738 0.767313 0.154604
-0.547698 -1.006255 1.173766 0.766912 0.018376
-0.547698 -1.006255 1.173766 0.766912 0.018376
-0.869713 -0.816255 1.173766 0.706041 0.009808
-1.099232 -0.971659 0.700471 0.663404 0.103153
-0.547698 -1.161659 0.463738 0.767313 0.154604
0.547698 -1.161659 0.463738 0.972713 0.153909
0.547698 -1.006255 1.173766 0.972313 0.017681
-0.547698 -1.006255 1.173766 0.766912 0.018376
0.547698 -1.161659 0.463738 0.972713 0.153909
1.024505 -0.992888 0.695829 1.061686 0.103630
0.860651 -0.837485 1.173766 1.030561 0.009691
0.860651 -0.837485 1.173766 1.030561 0.009691
0.547698 -1.006255 1.173766 0.972313 0.017681
0.547698 -1.161659 0.463738 0.972713 0.153909
-0.869713 -0.816255 1.173766 0.140650 0.547034
-0.547698 -1.006255 1.173766 0.199212 0.586552
-0.296976 -0.614736 1.470829 0.244810 0.505120
-0.296976 -0.614736 1.470829 0.244810 0.505120
-0.793774 -0.614736 1.369979 0.154460 0.505120
-0.869713 -0.816255 1.173766 0.140650 0.547034
-0.547698 -1.006255 1.173766 0.199212 0.586552
0.547698 -1.006255 1.173766 0.398425 0.586552
0.299745 -0.614736 1.470829 0.353331 0.505120
-0.296976 -0.614736 1.470829 0.244810 0.505120
-0.547698 -1.006255 1.173766 0.199212 0.586552
0.547698 -1.006255 1.173766 0.398425 0.586552
0.860651 -0.837485 1.173766 0.455340 0.551449
0.806479 -0.614736 1.381243 0.445488 0.505120
0.806479 -0.614736 1.381243 0.445488 0.505120
0.299745 -0.614736 1.470829 0.353331 0.505120
0.547698 -1.006255 1.173766 0.398425 0.586552
1.183195 -1.105592 0.000000 0.513999 0.607213
1.643093 -0.424787 0.000000 0.597637 0.465613
1.484403 -0.424788 0.695829 0.568778 0.465613
1.484403 -0.424788 0.695829 0.568778 0.465613
1.024505 -0.992888 0.695829 0.485139 0.583772
1.183195 -1.105592 0.000000 0.513999 0.607213
1.643093 -0.424787 0.000000 0.597637 0.465613
1.643093 0.424787 0.000000 0.597637 0.288909
1.484404 0.424787 0.695829 0.568778 0.288909
1.484403 -0.424788 0.695829 0.568778 0.465613
1.643093 0.424787 0.000000 0.597637 0.288909
1.194378 1.103389 0.000000 0.516032 0.147767
1.035688 0.971071 0.695829 0.487173 0.175288
1.035688 0.971071 0.695829 0.487173 0.175288
1.484404 0.424787 0.695829 0.568778 0.288909
1.643093 0.424787 0.000000 0.597637 0.288909
1.024505 -0.992888 0.695829 0.485139 0.583772
1.484403 -0.424788 0.695829 0.568778 0.465613
1.320550 -0.424788 1.173766 0.538979 0.465613
1.320550 -0.424788 1.173766 0.538979 0.465613
0.860651 -0.837485 1.173766 0.455340 0.551449
1.024505 -0.992888 0.695829 0.485139 0.583772
1.484403 -0.424788 0.695829 0.568778 0.465613
1.484404 0.424787 0.695829 0.568778 0.288909
1.320550 0.424787 1.173766 0.538979 0.288909
1.320550 -0.424788 1.173766 0.538979 0.465613
1.484404 0.424787 0.695829 0.568778 0.288909
1.035688 0.971071 0.695829 0.487173 0.175288
0.871835 0.805153 1.173766 0.457374 0.209797
0.871835 0.805153 1.173766 0.457374 0.209797
1.320550 0.424787 1.173766 0.538979 0.288909
1.484404 0.424787 0.695829 0.568778 0.288909
0.860651 -0.837485 1.173766 0.455340 0.551449
1.320550 -0.424788 1.173766 0.538979 0.465613
0.806479 -0.233087 1.445182 0.445488 0.425741
0.806479 -0.233087 1.445182 0.445488 0.425741
0.806479 -0.614736 1.381243 0.445488 0.505120
0.860651 -0.837485 1.173766 0.455340 0.551449
1.320550 -0.424788 1.173766 0.538979 0.465613
1.320550 0.424787 1.173766 0.538979 0.288909
0.806479 0.229722 1.445182 0.445488 0.329481
0.806479 -0.233087 1.445182 0.445488 0.425741
1.320550 0.424787 1.173766 0.538979 0.288909
0.871835 0.805153 1.173766 0.457374 0.209797
0.806479 0.599294 1.404798 0.445488 0.252614
0.806479 0.599294 1.404798 0.445488 0.252614
0.806479 0.229722 1.445182 0.445488 0.329481
1.320550 0.424787 1.173766 0.538979 0.288909
1.194378 1.103389 0.000000 0.664669 0.225144
0.547698 1.274363 0.000000 0.777762 0.232726
0.547698 1.142044 0.463738 0.777348 0.148776
0.547698 1.142044 0.463738 0.777348 0.148776
1.035688 0.971071 0.695829 0.691876 0.102194
1.194378 1.103389 0.000000 0.664669 0.225144
0.547698 1.274363 0.000000 0.777762 0.232726
-0.547698 1.274363 0.000000 0.968420 0.231790
-0.547698 1.142044 0.463738 0.968007 0.147840
0.547698 1.142044 0.463738 0.777348 0.148776
-0.547698 1.274363 0.000000 0.968420 0.231790
-1.261037 1.095067 0.000000 1.092020 0.222649
-1.086167 0.962748 0.700471 1.061169 0.099207
-1.086167 0.962748 0.700471 1.061169 0.099207
-0.547698 1.142044 0.463738 0.968007 0.147840
-0.547698 1.274363 0.000000 0.968420 0.231790
1.035688 0.971071 0.695829 0.691876 0.102194
0.547698 1.142044 0.463738 0.777348 0.148776
0.547698 0.976126 1.173766 0.776829 0.021986
0.547698 0.976126 1.173766 0.776829 0.021986
0.871835 0.805153 1.173766 0.719877 0.014128
1.035688 0.971071 0.695829 0.691876 0.102194
0.547698 1.142044 0.463738 0.777348 0.148776
-0.547698 1.142044 0.463738 0.968007 0.147840
-0.547698 0.976126 1.173766 0.967488 0.021050
0.547698 0.976126 1.173766 0.776829 0.021986
-0.547698 1.142044 0.463738 0.968007 0.147840
-1.086167 0.962748 0.700471 1.061169 0.099207
-0.856647 0.796830 1.173766 1.020701 0.012255
-0.856647 0.796830 1.173766 1.020701 0.012255
-0.547698 0.976126 1.173766 0.967488 0.021050
-0.547698 1.142044 0.463738 0.968007 0.147840
0.871835 0.805153 1.173766 0.457374 0.209797
0.547698 0.976126 1.173766 0.398425 0.174236
0.299745 0.599294 1.494385 0.353331 0.252614
0.299745 0.599294 1.494385 0.353331 0.252614
0.806479 0.599294 1.404798 0.445488 0.252614
0.871835 0.805153 1.173766 0.457374 0.209797
0.547698 0.976126 1.173766 0.398425 0.174236
-0.547698 0.976126 1.173766 0.199212 0.174236
-0.296976 0.599294 1.494385 0.244810 0.252614
0.299745 0.599294 1.494385 0.353331 0.252614
0.547698 0.976126 1.173766 0.398425 0.174236
-0.547698 0.976126 1.173766 0.199212 0.174236
-0.856647 0.796830 1.173766 0.143026 0.211528
-0.793774 0.599294 1.393534 0.154460 0.252614
-0.793774 0.599294 1.393534 0.154460 0.252614
-0.296976 0.599294 1.494385 0.244810 0.252614
-0.547698 0.976126 1.173766 0.199212 0.174236
-1.261037 1.095067 0.000000 0.069482 0.149498
-1.643093 0.424788 0.000000 0.000000 0.288909
-1.468222 0.424787 0.700471 0.031803 0.288909
-1.468222 0.424787 0.700471 0.031803 0.288909
-1.086167 0.962748 0.700471 0.101285 0.177019
-1.261037 1.095067 0.000000 0.069482 0.149498
-1.643093 0.424788 0.000000 0.000000 0.288909
-1.643093 -0.424787 0.000000 0.000000 0.465613
-1.468222 -0.424788 0.700471 0.031803 0.465613
-1.468222 0.424787 0.700471 0.031803 0.288909
-1.643093 -0.424787 0.000000 0.000000 0.465613
-1.274103 -1.084362 0.000000 0.067106 0.602798
-1.099232 -0.971659 0.700471 0.098909 0.579356
-1.099232 -0.971659 0.700471 0.098909 0.579356
-1.468222 -0.424788 0.700471 0.031803 0.465613
-1.643093 -0.424787 0.000000 0.000000 0.465613
-1.086167 0.962748 0.700471 0.101285 0.177019
-1.468222 0.424787 0.700471 0.031803 0.288909
-1.238703 0.424787 1.173766 0.073544 0.288909
-1.238703 0.424787 1.173766 0.073544 0.288909
-0.856647 0.796830 1.173766 0.143026 0.211528
-1.086167 0.962748 0.700471 0.101285 0.177019
-1.468222 0.424787 0.700471 0.031803 0.288909
-1.468222 -0.424788 0.700471 0.031803 0.465613
-1.238703 -0.424788 1.173766 0.073544 0.465613
-1.238703 0.424787 1.173766 0.073544 0.288909
-1.468222 -0.424788 0.700471 0.031803 0.465613
-1.099232 -0.971659 0.700471 0.098909 0.579356
-0.869713 -0.816255 1.173766 0.140650 0.547034
-0.869713 -0.816255 1.173766 0.140650 0.547034
-1.238703 -0.424788 1.173766 0.073544 0.465613
-1.468222 -0.424788 0.700471 0.031803 0.465613
-0.856647 0.796830 1.173766 0.143026 0.211528
-1.238703 0.424787 1.173766 0.073544 0.288909
-0.793774 0.229723 1.433917 0.154460 0.329481
-0.793774 0.229723 1.433917 0.154460 0.329481
-0.793774 0.599294 1.393534 0.154460 0.252614
-0.856647 0.796830 1.173766 0.143026 0.211528
-1.238703 0.424787 1.173766 0.073544 0.288909
-1.238703 -0.424788 1.173766 0.073544 0.465613
-0.793774 -0.233087 1.433917 0.154460 0.425741
-0.793774 0.229723 1.433917 0.154460 0.329481
-1.238703 -0.424788 1.173766 0.073544 0.465613
-0.869713 -0.816255 1.173766 0.140650 0.547034
-0.793774 -0.614736 1.369979 0.154460 0.505120
-0.793774 -0.614736 1.369979 0.154460 0.505120
-0.793774 -0.233087 1.433917 0.154460 0.425741
-1.238703 -0.424788 1.173766 0.073544 0.465613
3 0 1 2
3 2 3 0
3 4 5 6
3 6 7 4
3 8 9 10
3 10 11 8
3 12 13 14
3 14 15 12
3 16 17 18
3 18 19 16
3 20 21 22
3 22 23 20
3 24 25 26
3 26 27 24
3 28 29 30
3 30 31 28
3 32 33 34
3 34 35 32
3 36 37 38
3 39 40 41
3 42 43 44
3 44 45 42
3 46 47 48
3 49 50 51
3 52 53 54
3 55 56 57
3 58 59 60
3 60 61 58
3 62 63 64
3 65 66 67
3 68 69 70
3 71 72 73
3 74 75 76
3 76 77 78
3 79 80 81
3 82 83 84
3 85 86 87
3 88 89 90
3 91 92 93
3 93 94 91
3 95 96 97
3 98 99 100
3 101 102 103
3 104 105 106
3 107 108 109
3 109 110 107
3 111 112 113
3 114 115 116
3 117 118 119
3 120 121 122
3 123 124 125
3 125 126 123
3 127 128 129
3 130 131 132
3 133 134 135
3 136 137 138
3 139 140 141
3 141 142 139
3 143 144 145
3 146 147 148
3 149 150 151
3 152 153 154
3 155 156 157
3 157 158 155
3 159 160 161
3 162 163 164
3 165 166 167
3 168 169 170
3 171 172 173
3 173 174 175
3 176 177 178
3 179 180 181
3 182 183 184
3 185 186 187
3 188 189 190
3 190 191 188
3 192 193 194
3 195 196 197
3 198 199 200
3 201 202 203
3 204 205 206
3 206 207 204
3 208 209 210
3 211 212 213
3 214 215 216
3 217 218 219
3 220 221 222
3 222 223 220
3 224 225 226
3 227 228 229
